<svg version="1.1" viewBox="0.0 0.0 960.0 720.0" fill="none" stroke="none" stroke-linecap="square" stroke-miterlimit="10" xmlns:xlink="http://www.w3.org/1999/xlink" xmlns="http://www.w3.org/2000/svg"><clipPath id="p.0"><path d="m0 0l960.0 0l0 720.0l-960.0 0l0 -720.0z" clip-rule="nonzero"/></clipPath><g clip-path="url(#p.0)"><path fill="#000000" fill-opacity="0.0" d="m0 0l960.0 0l0 720.0l-960.0 0z" fill-rule="evenodd"/><path fill="#000000" fill-opacity="0.0" d="m58.62992 206.43307l804.34644 -3.7795258" fill-rule="evenodd"/><path stroke="#000000" stroke-width="4.0" stroke-linejoin="round" stroke-linecap="butt" stroke-dasharray="16.0,12.0" d="m82.629654 206.3203l756.347 -3.5539703" fill-rule="evenodd"/><path fill="#000000" stroke="#000000" stroke-width="4.0" stroke-linecap="butt" d="m82.59861 199.71344l-18.121147 6.692154l18.183235 6.5215607z" fill-rule="evenodd"/><path fill="#000000" stroke="#000000" stroke-width="4.0" stroke-linecap="butt" d="m839.0077 209.37317l18.121155 -6.692154l-18.183228 -6.5215607z" fill-rule="evenodd"/><path fill="#000000" fill-opacity="0.0" d="m5.1811023 99.01837l222.64566 0l0 108.69292l-222.64566 0z" fill-rule="evenodd"/><path fill="#0000ff" d="m83.93874 138.51837q1.203125 0 1.203125 -1.125q0 -1.125 -1.203125 -1.125q-1.234375 0 -1.234375 1.125q0 1.125 1.234375 1.125zm11.21875 -14.515625q1.09375 1.328125 1.09375 3.328125l0 9.4375q0 3.25 -3.625 3.25q-0.953125 0 -1.9375 -0.8125q-1.015625 -0.796875 -1.65625 -2.375q-0.65625 -1.578125 -1.578125 -2.296875q-0.9375 -0.703125 -2.25 -0.703125q-2.671875 0 -2.90625 1.609375q0.703125 -0.671875 1.640625 -0.671875q2.96875 0.15625 2.96875 2.28125q0.03125 0.265625 0.03125 0.515625q0 2.421875 -3.1875 2.453125q-3.9375 -0.09375 -3.9375 -4.078125q0.3125 -4.03125 5.390625 -4.265625q1.8125 0 3.296875 0.9375q1.46875 0.953125 2.34375 3.03125q0.875 2.078125 1.78125 2.078125q1.46875 0 1.46875 -0.953125l0 -9.4375q0 -0.515625 -0.234375 -1.109375q-2.96875 2.9375 -7.734375 2.9375q-6.3125 0 -6.3125 -3.78125q0 -3.90625 6.953125 -3.90625l0.171875 0q4.0625 0 6.34375 1.125q0.59375 -1.5625 0.703125 -1.890625q0.046875 -0.203125 0.4375 -0.203125q0.296875 0 0.75 0.09375q0.953125 0.21875 0.953125 0.5625q0 0.046875 -0.015625 0.09375q-0.171875 0.421875 -0.953125 2.75zm-3.15625 0.5625q-1.71875 -0.921875 -5.25 -0.921875q-4.6875 0 -4.6875 1.734375q0 1.65625 4.0 1.65625q3.78125 0 5.9375 -2.46875zm-1.8751068 -6.359375q0.078125 -0.46875 0.34375 -0.625q0.265625 -0.171875 1.03125 -0.484375q0.75 -0.421875 1.25 -0.921875q0.34375 -0.328125 0.34375 -0.734375q0 -0.1875 -0.078125 -0.421875q-0.25 -0.640625 -1.453125 -1.109375q-1.171875 -0.4375 -3.296875 -0.4375l-0.34375 0q-2.15625 0 -3.171875 0.34375q-1.09375 0.375 -1.375 1.078125q-0.09375 0.265625 -0.09375 0.5q0 0.390625 0.28125 0.71875q0.4375 0.53125 1.046875 0.890625q1.015625 0.40625 1.265625 0.625q0.25 0.203125 0.28125 0.515625q-0.078125 0.84375 -1.140625 0.84375q-0.171875 0 -0.40625 -0.03125q-0.875 -0.265625 -1.484375 -0.640625q-0.609375 -0.375 -1.125 -0.84375q-0.515625 -0.484375 -0.703125 -0.953125q-0.203125 -0.46875 -0.28125 -1.203125q0 -0.84375 0.78125 -1.75q0.78125 -0.921875 2.296875 -1.359375q1.515625 -0.4375 4.015625 -0.53125q2.46875 0.09375 4.09375 0.515625q1.609375 0.421875 2.4375 1.421875q0.8125 0.984375 0.828125 1.71875q0 0.796875 -0.34375 1.328125q-0.34375 0.53125 -0.8125 0.921875q-0.46875 0.390625 -1.046875 0.78125q-0.578125 0.390625 -1.765625 0.625q-1.375 0 -1.375 -0.78125zm13.078125 6.078125q0 1.203125 0.953125 1.203125q0.96875 0 0.96875 -1.203125q0 -1.1875 -0.96875 -1.1875q-0.953125 0 -0.953125 1.1875zm3.953125 11.421875q1.140625 0.296875 2.015625 1.0625q1.4375 1.234375 3.25 1.234375q3.328125 0 3.328125 -2.8125l0 -13.203125q0 -0.515625 1.03125 -0.515625q1.03125 0 1.03125 0.546875l0 13.25q0 4.75 -5.390625 4.75q-2.46875 0 -3.921875 -1.296875q-0.921875 -0.84375 -1.828125 -1.15625q-1.109375 2.390625 -3.921875 2.390625l-0.15625 0q-0.4375 -0.015625 -0.4375 -0.859375q0 -0.859375 0.203125 -0.90625q0.21875 -0.0625 1.109375 -0.15625q0.90625 -0.109375 1.203125 -1.015625q0.296875 -0.921875 0.453125 -2.515625l0 -7.46875q-0.484375 0.046875 -0.8125 0.046875q-2.9375 0 -2.9375 -2.796875q0 -2.78125 2.9375 -2.8125q2.90625 0.03125 2.90625 2.8125l0 10.234375q0 0.640625 -0.0625 1.1875zm20.8749 1.734375q0 -1.078125 -1.1562576 -1.078125q-1.15625 0 -1.15625 1.078125q0 1.109375 1.15625 1.109375q1.1562576 0 1.1562576 -1.109375zm-5.0937576 -3.609375q0 -2.578125 2.703125 -3.609375q-2.703125 -1.03125 -2.703125 -3.765625q0 -4.984375 8.203133 -4.984375q8.203125 0 8.234375 5.734375l0 12.140625q0 0.671875 -1.09375 0.671875q-1.109375 0 -1.109375 -0.671875l0 -12.171875q0 -3.6875 -5.984375 -3.6875q-6.0156326 0 -6.0156326 2.96875q0 1.71875 1.015625 2.28125q1.015625 0.5625 2.0625076 0.59375q1.28125 0 1.28125 0.890625q0 0.890625 -0.65625 0.890625q-0.640625 0 -2.6875076 0.53125q-1.015625 0.640625 -1.015625 2.1875l0 1.921875l0.140625 -0.203125q0.6875 -0.6875 1.890625 -0.6875q2.5312576 0 2.5312576 2.265625q0.046875 0.25 0.046875 0.5q0 2.359375 -2.9062576 2.390625q-3.9375 -0.09375 -3.9375 -4.796875l0 -1.390625zm8.874901 -18.5625q0.109375 -0.3125 0.109375 -0.515625q0 -0.15625 -0.046875 -0.265625q-0.203125 -0.421875 -0.5625 -0.421875q-0.0625 0 -0.140625 0.015625q-0.46875 0.09375 -0.484375 0.578125q-0.015625 0.03125 -0.015625 0.078125q0 0.4375 0.421875 0.5q0.21875 0.046875 0.46875 0.046875q0.109375 0 0.25 -0.015625zm-0.703125 1.171875q-0.84375 -0.109375 -1.328125 -0.546875q-0.53125 -0.453125 -0.53125 -1.21875l0 -0.171875q0.0625 -0.875 0.78125 -1.40625q0.59375 -0.40625 1.359375 -0.40625q0.15625 0 0.34375 0.015625q0.984375 0.125 1.34375 0.796875q0.328125 0.640625 0.328125 1.546875l0 0.171875q-0.03125 1.015625 -1.453125 2.4375q2.40625 -0.171875 3.703125 -1.3125q1.28125 -1.15625 1.953125 -3.0625l1.9375 0.984375q-0.984375 2.0625 -1.890625 2.921875q-0.921875 0.859375 -2.390625 1.40625q-1.484375 0.53125 -3.765625 0.53125l-3.484375 0l0 -1.1875q2.21875 -0.484375 3.09375 -1.5zm17.140625 8.90625q0 -1.140625 -1.125 -1.140625q-1.125 0 -1.125 1.140625q0 1.125 1.125 1.125q1.125 0 1.125 -1.125zm4.59375 14.125q0 0.546875 -0.984375 0.546875q-1.015625 0 -1.015625 -0.546875l0 -12.921875q0 -2.53125 -1.765625 -2.734375q0.6875 0.65625 0.6875 1.53125q0 2.8125 -2.296875 2.8125q-0.265625 0.03125 -0.515625 0.03125q-2.421875 0 -2.453125 -3.015625q0.09375 -3.703125 3.765625 -3.703125q4.578125 0 4.578125 5.125l0 12.875z" fill-rule="nonzero"/><path fill="#000000" fill-opacity="0.0" d="m677.1811 99.01837l222.64569 0l0 108.69292l-222.64569 0z" fill-rule="evenodd"/><path fill="#0000ff" d="m743.10297 125.48712q0.984375 0 0.984375 -1.203125q0 -1.1875 -0.984375 -1.1875q-1.0 0 -1.0 1.1875q0 1.203125 1.0 1.203125zm-0.421875 8.953125q0 3.5625 6.015625 3.5625q5.984375 0 5.984375 -4.359375l0 -11.609375q0 -0.5625 1.109375 -0.5625q1.09375 0 1.09375 0.5625l-0.015625 11.65625q-0.015625 6.328125 -8.21875 6.328125q-8.203125 0 -8.203125 -5.578125q0 -3.21875 1.828125 -5.75q0.609375 -0.84375 1.015625 -1.609375q-2.84375 -0.03125 -2.84375 -2.796875q0 -2.78125 2.890625 -2.8125q2.90625 0.03125 2.90625 2.8125q0 2.390625 -1.78125 5.015625q-1.78125 2.625 -1.78125 5.140625zm7.546753 -21.625q0.796875 0 1.5625 0.40625q0.765625 0.390625 1.1875 1.140625q0.421875 0.734375 0.421875 1.5625q0 0.796875 -0.40625 1.53125q-0.421875 0.734375 -1.171875 1.140625q-0.765625 0.40625 -1.59375 0.40625q-0.828125 0 -1.578125 -0.40625q-0.765625 -0.40625 -1.1875 -1.140625q-0.421875 -0.734375 -0.421875 -1.53125q0 -0.828125 0.4375 -1.5625q0.421875 -0.75 1.1875 -1.140625q0.75 -0.40625 1.5625 -0.40625zm0 1.75q-0.328125 0 -0.640625 0.171875q-0.3125 0.171875 -0.5 0.484375q-0.1875 0.3125 -0.1875 0.640625q0 0.34375 0.1875 0.65625q0.171875 0.3125 0.484375 0.484375q0.3125 0.171875 0.65625 0.171875q0.359375 0 0.6875 -0.171875q0.3125 -0.171875 0.484375 -0.484375q0.15625 -0.3125 0.15625 -0.65625q0 -0.328125 -0.171875 -0.640625q-0.171875 -0.3125 -0.484375 -0.484375q-0.328125 -0.171875 -0.671875 -0.171875zm14.796875 22.953125q0 1.109375 1.21875 1.109375q1.203125 0 1.203125 -1.109375q0 -1.125 -1.203125 -1.125q-1.21875 0 -1.21875 1.125zm9.8125 2.5q-0.96875 0 -1.96875 -0.640625q-1.0 -0.640625 -1.65625 -2.21875q-0.640625 -1.578125 -1.65625 -2.359375q-1.0 -0.796875 -2.15625 -0.890625q-0.21875 -0.015625 -0.40625 -0.015625q-2.21875 0 -2.5 1.546875q0.703125 -0.671875 1.625 -0.671875q2.984375 0.3125 2.984375 2.28125q0.03125 0.28125 0.03125 0.53125q0 2.40625 -3.1875 2.4375q-3.9375 -0.09375 -3.9375 -4.25q0.359375 -4.0 5.046875 -4.0l0.234375 0q1.953125 0.234375 3.40625 1.09375q1.46875 0.859375 2.34375 2.859375q0.875 2.0 1.796875 2.0q1.453125 0 1.453125 -0.953125l0 -9.765625q0 -3.34375 -5.671875 -3.34375l-0.4375 0q-5.96875 0 -5.984375 2.84375q0 0.5 -1.09375 0.5q-1.09375 0 -1.09375 -0.5q0 -5.03125 8.21875 -5.03125q8.21875 0 8.21875 5.546875l0 9.75q0 3.25 -3.609375 3.25zm-2.515747 -21.8125q0.078125 -0.46875 0.34375 -0.625q0.265625 -0.171875 1.03125 -0.484375q0.75 -0.421875 1.25 -0.921875q0.34375 -0.328125 0.34375 -0.734375q0 -0.1875 -0.078125 -0.421875q-0.25 -0.640625 -1.453125 -1.109375q-1.171875 -0.4375 -3.296875 -0.4375l-0.34375 0q-2.15625 0 -3.171875 0.34375q-1.09375 0.375 -1.375 1.078125q-0.09375 0.265625 -0.09375 0.5q0 0.390625 0.28125 0.71875q0.4375 0.53125 1.046875 0.890625q1.015625 0.40625 1.265625 0.625q0.25 0.203125 0.28125 0.515625q-0.078125 0.84375 -1.140625 0.84375q-0.171875 0 -0.40625 -0.03125q-0.875 -0.265625 -1.484375 -0.640625q-0.609375 -0.375 -1.125 -0.84375q-0.515625 -0.484375 -0.703125 -0.953125q-0.203125 -0.46875 -0.28125 -1.203125q0 -0.84375 0.78125 -1.75q0.78125 -0.921875 2.296875 -1.359375q1.515625 -0.4375 4.015625 -0.53125q2.46875 0.09375 4.09375 0.515625q1.609375 0.421875 2.4375 1.421875q0.8125 0.984375 0.828125 1.71875q0 0.796875 -0.34375 1.328125q-0.34375 0.53125 -0.8125 0.921875q-0.46875 0.390625 -1.046875 0.78125q-0.578125 0.390625 -1.765625 0.625q-1.375 0 -1.375 -0.78125zm13.96875 20.28125q1.046875 0 1.046875 -0.984375q0 -0.984375 -1.046875 -0.984375q-1.046875 0 -1.046875 0.984375q0 0.984375 1.046875 0.984375zm-0.078125 -15.453125q-0.984375 0 -0.984375 0.6875q0 0.734375 0.671875 0.84375q0.109375 0.015625 0.25 0.015625q0.546875 0 1.1875 -0.40625q-0.140625 -1.046875 -1.125 -1.140625zm3.3125 14.203125q-0.109375 2.5625 -3.125 2.78125q-2.6875 -0.046875 -2.828125 -2.625q0.265625 -2.109375 2.09375 -2.53125q0.34375 -0.046875 0.625 -0.046875q0.671875 0 1.046875 0.25l0 -8.765625q-0.53125 0.0625 -1.015625 0.125q-2.75 -0.21875 -2.75 -2.5625q0 -2.3125 2.546875 -2.390625q2.25 0 3.40625 1.75q2.671875 -1.671875 5.34375 -1.75q5.859375 0.140625 6.3125 4.4375l0 13.546875q0 0.5625 -1.09375 0.5625q-1.109375 0 -1.109375 -0.6875l0 -13.375q-0.015625 -2.171875 -4.109375 -2.453125q-2.78125 0.359375 -3.90625 1.015625q-1.109375 0.640625 -1.4375 0.984375l0 11.734375zm20.531006 -11.890625q0 -1.140625 -1.125 -1.140625q-1.125 0 -1.125 1.140625q0 1.125 1.125 1.125q1.125 0 1.125 -1.125zm4.59375 14.125q0 0.546875 -0.984375 0.546875q-1.015625 0 -1.015625 -0.546875l0 -12.921875q0 -2.53125 -1.765625 -2.734375q0.6875 0.65625 0.6875 1.53125q0 2.8125 -2.296875 2.8125q-0.265625 0.03125 -0.515625 0.03125q-2.421875 0 -2.453125 -3.015625q0.09375 -3.703125 3.765625 -3.703125q4.578125 0 4.578125 5.125l0 12.875zm6.9588013 -15.1875q0 1.203125 0.953125 1.203125q0.96875 0 0.96875 -1.203125q0 -1.1875 -0.96875 -1.1875q-0.953125 0 -0.953125 1.1875zm3.953125 11.421875q1.140625 0.296875 2.015625 1.0625q1.4375 1.234375 3.25 1.234375q3.328125 0 3.328125 -2.8125l0 -13.203125q0 -0.515625 1.03125 -0.515625q1.03125 0 1.03125 0.546875l0 13.25q0 4.75 -5.390625 4.75q-2.46875 0 -3.921875 -1.296875q-0.921875 -0.84375 -1.828125 -1.15625q-1.109375 2.390625 -3.921875 2.390625l-0.15625 0q-0.4375 -0.015625 -0.4375 -0.859375q0 -0.859375 0.203125 -0.90625q0.21875 -0.0625 1.109375 -0.15625q0.90625 -0.109375 1.203125 -1.015625q0.296875 -0.921875 0.453125 -2.515625l0 -7.46875q-0.484375 0.046875 -0.8125 0.046875q-2.9375 0 -2.9375 -2.796875q0 -2.78125 2.9375 -2.8125q2.90625 0.03125 2.90625 2.8125l0 10.234375q0 0.640625 -0.0625 1.1875z" fill-rule="nonzero"/><path fill="#000000" fill-opacity="0.0" d="m54.244095 227.01837l855.81104 0l0 108.6929l-855.81104 0z" fill-rule="evenodd"/><path fill="#000000" d="m70.525345 262.64587q0 -0.78125 -0.71875 -0.78125q-0.71875 0 -0.71875 0.78125q0 0.78125 0.71875 0.78125q0.71875 0 0.71875 -0.78125zm-2.921875 -1.765625q0 1.546875 0.25 1.59375q0.15625 -1.734375 2.03125 -1.734375q1.875 0 1.90625 1.8125q-0.09375 2.90625 -2.5625 2.90625q-3.46875 0 -3.46875 -4.578125l0 -8.375q0 -2.453125 1.203125 -3.28125q1.21875 -0.828125 2.34375 -0.828125q1.453125 0 2.453125 0.578125l0 1.703125q-1.34375 -0.328125 -2.453125 -0.328125q-0.984375 0 -1.34375 0.59375q-0.359375 0.578125 -0.359375 1.203125l0 8.734375zm12.044525 -7.9375q-1.015625 0 -1.015625 1.03125q0 1.03125 1.015625 1.03125q1.0 0 1.0 -1.03125q0 -1.03125 -1.0 -1.03125zm0.546875 12.515625q-1.484375 0 -2.75 -1.078125q-1.25 -1.09375 -1.25 -2.515625q0 -3.109375 4.390625 -4.375l3.171875 -0.921875q5.5625 -1.5 5.5625 -3.359375q-0.078125 -1.28125 -1.4375 -2.0625q-1.34375 -0.796875 -4.5625 -0.796875q-4.421875 0 -5.046875 1.828125q0.59375 -0.625 1.359375 -0.625q2.515625 0 2.515625 2.109375q0.03125 0.234375 0.03125 0.453125q0 2.25 -2.671875 2.265625q-3.3125 -0.078125 -3.3125 -3.453125q0 -4.53125 7.125 -4.53125q2.109375 0.03125 3.1875 0.203125q1.265625 0.234375 2.328125 0.78125q1.0625 0.5625 1.78125 1.484375q0.6875 0.9375 0.6875 2.390625q0 3.234375 -6.84375 5.15625l-3.578125 1.015625q-2.71875 0.796875 -2.71875 2.4375q0.015625 0.5625 0.625 1.09375q0.609375 0.515625 1.375 0.515625q0.921875 0 3.40625 -0.90625q2.5 -0.90625 3.734375 -0.90625q1.484375 0 2.75 1.25l0.5625 0.65625q0.421875 0.640625 0.546875 1.265625l0 0.140625q0 0.484375 -0.75 0.484375q-0.859375 0 -0.90625 -0.390625q-0.109375 -0.296875 -0.765625 -0.859375q-0.65625 -0.5625 -1.40625 -0.5625q-0.921875 0 -3.46875 0.890625q-2.546875 0.890625 -3.671875 0.921875zm2.9412842 -21.765625q-0.140625 -0.984375 -0.9375 -0.984375q-0.328125 0 -0.515625 0.109375q-0.1875 0.109375 -0.28125 0.265625q-0.109375 0.140625 -0.140625 0.3125q-0.03125 0.171875 -0.03125 0.28125q0 0.46875 0.3125 0.703125q0.25 0.21875 0.53125 0.21875l0.078125 0q0.46875 0 0.703125 -0.234375q0.21875 -0.25 0.28125 -0.671875zm7.03125 2.421875l0 -0.078125q0 -3.53125 -3.578125 -3.53125l-2.375 0q0.296875 0.484375 0.421875 0.828125q0.046875 0.1875 0.046875 0.390625q0 0.1875 -0.046875 0.421875q-0.125 0.453125 -0.390625 0.921875q-0.28125 0.46875 -0.578125 0.640625q-0.3125 0.171875 -0.71875 0.296875q-0.40625 0.109375 -0.8125 0.109375q-0.03125 0 -0.0625 -0.015625q-0.453125 0 -0.96875 -0.15625q-0.515625 -0.171875 -0.78125 -0.4375q-0.265625 -0.265625 -0.46875 -0.59375q-0.328125 -0.734375 -0.328125 -1.0625l0 -0.015625q0 -0.296875 0.125 -0.84375q0.125 -0.546875 0.28125 -0.71875q0.453125 -0.734375 1.21875 -1.046875q0.75 -0.3125 1.65625 -0.40625q0.890625 -0.09375 1.765625 -0.09375l1.984375 0q5.421875 0 5.703125 5.390625l-2.09375 0zm-6.34375 -9.9375q0.109375 -0.234375 0.109375 -0.40625q0 -0.09375 -0.046875 -0.1875q-0.171875 -0.328125 -0.515625 -0.328125q-0.046875 0 -0.125 0.015625q-0.4375 0.0625 -0.453125 0.4375q-0.015625 0.03125 -0.015625 0.046875q0 0.34375 0.390625 0.390625q0.234375 0.03125 0.5 0.03125l0.15625 0zm-0.640625 0.890625q-0.78125 -0.078125 -1.234375 -0.40625q-0.46875 -0.34375 -0.46875 -0.9375l0 -0.125q0.0625 -0.671875 0.71875 -1.0625q0.53125 -0.3125 1.234375 -0.3125q0.15625 0 0.3125 0.015625q0.921875 0.078125 1.25 0.609375q0.296875 0.484375 0.296875 1.171875l0 0.109375q-0.03125 0.78125 -1.328125 1.859375q2.21875 -0.140625 3.40625 -1.0q1.171875 -0.875 1.78125 -2.328125l1.796875 0.75q-0.90625 1.578125 -1.75 2.234375q-0.84375 0.640625 -2.203125 1.0625q-1.359375 0.40625 -3.453125 0.40625l-3.203125 0l0 -0.90625q2.03125 -0.359375 2.84375 -1.140625zm15.96875 14.890625q0 -1.046875 -1.03125 -1.046875q-1.03125 0 -1.03125 1.046875q0 1.046875 1.03125 1.046875q1.03125 0 1.03125 -1.046875zm4.234375 12.984375q0 0.515625 -0.90625 0.515625q-0.9375 0 -0.9375 -0.515625l0 -11.875q0 -2.328125 -1.625 -2.515625q0.625 0.609375 0.625 1.40625q0 2.59375 -2.109375 2.59375q-0.234375 0.03125 -0.46875 0.03125q-2.21875 0 -2.25 -2.78125q0.09375 -3.40625 3.453125 -3.40625q4.21875 0 4.21875 4.71875l0 11.828125zm9.800476 -2.296875q0 -0.78125 -0.71875 -0.78125q-0.71875 0 -0.71875 0.78125q0 0.78125 0.71875 0.78125q0.71875 0 0.71875 -0.78125zm-2.921875 -1.765625q0 1.546875 0.25 1.59375q0.15625 -1.734375 2.03125 -1.734375q1.875 0 1.90625 1.8125q-0.09375 2.90625 -2.5625 2.90625q-3.46875 0 -3.46875 -4.578125l0 -8.375q0 -2.453125 1.203125 -3.28125q1.21875 -0.828125 2.34375 -0.828125q1.453125 0 2.453125 0.578125l0 1.703125q-1.34375 -0.328125 -2.453125 -0.328125q-0.984375 0 -1.34375 0.59375q-0.359375 0.578125 -0.359375 1.203125l0 8.734375zm10.9039 -8.765625q0.875 0 0.875 -1.109375q0 -1.125 -0.875 -1.125q-0.859375 0 -0.859375 1.125q0 1.109375 0.859375 1.109375zm10.1875 -4.0625q0 -0.859375 0.03125 -1.46875q0.015625 -0.734375 0.109375 -1.359375q0.09375 -0.640625 0.25 -1.15625q0.15625 -0.53125 1.1875 -0.53125q0.890625 0 0.890625 0.25q0 0.046875 -0.03125 0.109375q-0.1875 0.359375 -0.296875 1.015625q-0.109375 0.65625 -0.15625 1.484375q-0.03125 0.8125 -0.03125 1.90625l0 11.171875q0 5.984375 -7.25 5.984375q-7.203125 0 -7.203125 -5.234375q0 -3.03125 1.59375 -5.25q0.546875 -0.78125 0.90625 -1.359375q-2.5 -0.03125 -2.5 -2.609375q0 -2.609375 2.515625 -2.609375l0.0625 0q2.546875 0 2.546875 2.609375q0 2.21875 -1.5625 4.546875q-1.5625 2.3125 -1.5625 4.671875q0 3.21875 5.234375 3.21875q5.25 0 5.25 -3.96875l0 -11.421875l0.015625 0zm-6.99675 -4.90625q0 -0.484375 0.40625 -0.8125q0.390625 -0.34375 0.9375 -0.34375q0.5625 0 0.984375 0.34375q0.40625 0.328125 0.40625 0.8125q0 0.46875 -0.40625 0.828125q-0.421875 0.34375 -0.984375 0.34375q-0.546875 0 -0.9375 -0.34375q-0.40625 -0.359375 -0.40625 -0.828125zm8.828125 2.96875l-4.5 0q-1.234375 0 -1.234375 -0.765625q0.046875 -0.390625 0.3125 -0.5625q0.25 -0.171875 0.921875 -0.453125q0.6875 -0.390625 1.140625 -0.84375q0.28125 -0.3125 0.28125 -0.65625q0 -0.171875 -0.078125 -0.375q-0.234375 -0.53125 -1.296875 -0.96875q-1.0 -0.40625 -2.796875 -0.40625l-0.578125 0q-1.828125 0 -2.71875 0.3125q-0.953125 0.359375 -1.203125 0.953125q-0.09375 0.21875 -0.09375 0.4375q0 0.34375 0.25 0.640625q0.390625 0.484375 0.9375 0.828125q0.90625 0.375 1.140625 0.578125q0.21875 0.203125 0.234375 0.484375q-0.0625 0.796875 -1.015625 0.796875q-0.15625 0 -0.359375 -0.03125q-0.78125 -0.25 -1.328125 -0.59375q-0.546875 -0.359375 -1.0 -0.796875q-0.46875 -0.4375 -0.65625 -0.859375q-0.1875 -0.4375 -0.25 -1.171875q0 -0.65625 0.703125 -1.5q0.703125 -0.84375 2.0625 -1.25q1.359375 -0.421875 3.609375 -0.53125q2.1875 0.109375 3.578125 0.46875q1.390625 0.359375 1.953125 0.953125q0.546875 0.578125 0.75 1.515625q0.015625 0.15625 0.015625 0.3125q0 0.671875 -0.171875 1.046875q-0.203125 0.46875 -0.78125 1.109375l2.171875 0l0 1.328125zm8.03125 14.59375q0 -0.328125 -0.21875 -0.53125q-0.21875 -0.21875 -0.53125 -0.21875q-0.359375 0 -0.59375 0.21875q-0.234375 0.21875 -0.234375 0.546875q0 0.34375 0.234375 0.5625q0.234375 0.203125 0.59375 0.203125q0.3125 0 0.53125 -0.203125q0.21875 -0.21875 0.21875 -0.5625l0 -0.015625zm9.765625 -6.9375q0.015625 -0.171875 0.015625 -0.328125q0 -0.9375 -0.515625 -1.515625q-0.625 -0.671875 -1.609375 -1.0q-0.96875 -0.328125 -2.171875 -0.484375q-0.5625 -0.0625 -1.140625 -0.0625q-0.734375 0 -1.546875 0.09375q-1.453125 0.1875 -2.265625 0.59375q-0.796875 0.390625 -1.296875 1.15625q-0.40625 0.625 -0.40625 1.265625q0 0.140625 0.03125 0.28125q0.109375 0.765625 0.9375 1.375q0.84375 0.609375 2.609375 0.796875q0.8125 0.078125 1.578125 0.078125q0.890625 0 1.71875 -0.109375q1.546875 -0.21875 2.578125 -0.65625q1.03125 -0.4375 1.484375 -1.484375zm-5.921875 11.6875q-3.078125 -0.140625 -4.53125 -0.984375q-1.25 -0.578125 -1.84375 -1.46875q-0.59375 -0.90625 -0.65625 -2.0q0.125 -0.9375 0.53125 -1.515625q0.40625 -0.578125 1.15625 -0.765625q0.390625 -0.109375 0.765625 -0.109375q0.3125 0 0.609375 0.078125q0.640625 0.171875 0.984375 0.5625q0.34375 0.390625 0.46875 0.828125q0.0625 0.265625 0.0625 0.5625q0 0.1875 -0.03125 0.390625q-0.09375 0.515625 -0.453125 0.984375q-0.359375 0.4375 -0.671875 0.4375l-0.046875 0q0.328125 0.453125 2.0 0.71875q1.25 0.21875 2.21875 0.21875q0.328125 0 0.609375 -0.015625q1.15625 -0.09375 2.046875 -0.375q0.890625 -0.296875 1.515625 -0.703125q0.625 -0.421875 1.078125 -1.25q0.375 -0.6875 0.375 -1.859375q0 -0.25 -0.015625 -0.5l0 -2.375q-0.734375 0.6875 -1.75 1.046875q-1.015625 0.359375 -2.5625 0.484375q-1.15625 0.109375 -2.203125 0.109375q-0.34375 0 -0.6875 -0.015625q-1.34375 -0.046875 -2.3125 -0.34375q-0.953125 -0.3125 -1.78125 -0.828125q-0.8125 -0.53125 -1.296875 -1.328125q-0.484375 -0.796875 -0.53125 -1.59375q-0.03125 -0.265625 -0.03125 -0.515625q0 -0.515625 0.078125 -0.96875q0.140625 -0.6875 0.828125 -1.578125q0.6875 -0.90625 1.875 -1.421875q1.203125 -0.515625 2.4375 -0.734375q1.25 -0.234375 2.265625 -0.234375q1.40625 0 2.875 0.375q1.46875 0.359375 2.453125 1.0q1.0 0.640625 1.625 1.765625q0.625 1.125 0.625 2.734375l0 6.015625q0 0.90625 -0.46875 1.921875q-0.5625 0.90625 -1.25 1.453125q-0.6875 0.546875 -1.75 1.015625q-1.0625 0.453125 -2.984375 0.640625l-1.625 0.140625zm15.3025055 -1.40625q0.953125 0 0.953125 -0.90625q0 -0.90625 -0.953125 -0.90625q-0.953125 0 -0.953125 0.90625q0 0.90625 0.953125 0.90625zm-0.078125 -14.21875q-0.890625 0 -0.890625 0.640625q0 0.671875 0.609375 0.765625q0.109375 0.015625 0.21875 0.015625q0.515625 0 1.09375 -0.375q-0.125 -0.953125 -1.03125 -1.046875zm3.046875 13.0625q-0.09375 2.375 -2.859375 2.5625q-2.484375 -0.046875 -2.609375 -2.40625q0.234375 -1.953125 1.921875 -2.34375q0.328125 -0.046875 0.578125 -0.046875q0.609375 0 0.953125 0.25l0 -8.078125q-0.484375 0.0625 -0.921875 0.125q-2.53125 -0.203125 -2.53125 -2.359375q0 -2.125 2.328125 -2.203125q2.078125 0 3.140625 1.609375q2.46875 -1.53125 4.921875 -1.609375q5.390625 0.125 5.796875 4.078125l0 12.453125q0 0.53125 -1.0 0.53125q-1.015625 0 -1.015625 -0.625l0 -12.3125q-0.015625 -2.0 -3.78125 -2.25q-2.5625 0.328125 -3.59375 0.921875q-1.015625 0.59375 -1.328125 0.90625l0 10.796875z" fill-rule="nonzero"/><path fill="#000000" d="m200.88925 262.64587q0 -0.78125 -0.71875 -0.78125q-0.71875 0 -0.71875 0.78125q0 0.78125 0.71875 0.78125q0.71875 0 0.71875 -0.78125zm-2.921875 -1.765625q0 1.546875 0.25 1.59375q0.15625 -1.734375 2.03125 -1.734375q1.875 0 1.90625 1.8125q-0.09375 2.90625 -2.5625 2.90625q-3.46875 0 -3.46875 -4.578125l0 -8.375q0 -2.453125 1.203125 -3.28125q1.21875 -0.828125 2.34375 -0.828125q1.453125 0 2.453125 0.578125l0 1.703125q-1.34375 -0.328125 -2.453125 -0.328125q-0.984375 0 -1.34375 0.59375q-0.359375 0.578125 -0.359375 1.203125l0 8.734375zm12.044525 -7.9375q-1.015625 0 -1.015625 1.03125q0 1.03125 1.015625 1.03125q1.0 0 1.0 -1.03125q0 -1.03125 -1.0 -1.03125zm0.546875 12.515625q-1.484375 0 -2.75 -1.078125q-1.25 -1.09375 -1.25 -2.515625q0 -3.109375 4.390625 -4.375l3.171875 -0.921875q5.5625 -1.5 5.5625 -3.359375q-0.078125 -1.28125 -1.4375 -2.0625q-1.34375 -0.796875 -4.5625 -0.796875q-4.421875 0 -5.046875 1.828125q0.59375 -0.625 1.359375 -0.625q2.515625 0 2.515625 2.109375q0.03125 0.234375 0.03125 0.453125q0 2.25 -2.671875 2.265625q-3.3125 -0.078125 -3.3125 -3.453125q0 -4.53125 7.125 -4.53125q2.109375 0.03125 3.1875 0.203125q1.265625 0.234375 2.328125 0.78125q1.0625 0.5625 1.78125 1.484375q0.6875 0.9375 0.6875 2.390625q0 3.234375 -6.84375 5.15625l-3.578125 1.015625q-2.71875 0.796875 -2.71875 2.4375q0.015625 0.5625 0.625 1.09375q0.609375 0.515625 1.375 0.515625q0.921875 0 3.40625 -0.90625q2.5 -0.90625 3.734375 -0.90625q1.484375 0 2.75 1.25l0.5625 0.65625q0.421875 0.640625 0.546875 1.265625l0 0.140625q0 0.484375 -0.75 0.484375q-0.859375 0 -0.90625 -0.390625q-0.109375 -0.296875 -0.765625 -0.859375q-0.65625 -0.5625 -1.40625 -0.5625q-0.921875 0 -3.46875 0.890625q-2.546875 0.890625 -3.671875 0.921875zm2.9412842 -21.765625q-0.140625 -0.984375 -0.9375 -0.984375q-0.328125 0 -0.515625 0.109375q-0.1875 0.109375 -0.28125 0.265625q-0.109375 0.140625 -0.140625 0.3125q-0.03125 0.171875 -0.03125 0.28125q0 0.46875 0.3125 0.703125q0.25 0.21875 0.53125 0.21875l0.078125 0q0.46875 0 0.703125 -0.234375q0.21875 -0.25 0.28125 -0.671875zm7.03125 2.421875l0 -0.078125q0 -3.53125 -3.578125 -3.53125l-2.375 0q0.296875 0.484375 0.421875 0.828125q0.046875 0.1875 0.046875 0.390625q0 0.1875 -0.046875 0.421875q-0.125 0.453125 -0.390625 0.921875q-0.28125 0.46875 -0.578125 0.640625q-0.3125 0.171875 -0.71875 0.296875q-0.40625 0.109375 -0.8125 0.109375q-0.03125 0 -0.0625 -0.015625q-0.453125 0 -0.96875 -0.15625q-0.515625 -0.171875 -0.78125 -0.4375q-0.265625 -0.265625 -0.46875 -0.59375q-0.328125 -0.734375 -0.328125 -1.0625l0 -0.015625q0 -0.296875 0.125 -0.84375q0.125 -0.546875 0.28125 -0.71875q0.453125 -0.734375 1.21875 -1.046875q0.75 -0.3125 1.65625 -0.40625q0.890625 -0.09375 1.765625 -0.09375l1.984375 0q5.421875 0 5.703125 5.390625l-2.09375 0zm-6.34375 -9.9375q0.109375 -0.234375 0.109375 -0.40625q0 -0.09375 -0.046875 -0.1875q-0.171875 -0.328125 -0.515625 -0.328125q-0.046875 0 -0.125 0.015625q-0.4375 0.0625 -0.453125 0.4375q-0.015625 0.03125 -0.015625 0.046875q0 0.34375 0.390625 0.390625q0.234375 0.03125 0.5 0.03125l0.15625 0zm-0.640625 0.890625q-0.78125 -0.078125 -1.234375 -0.40625q-0.46875 -0.34375 -0.46875 -0.9375l0 -0.125q0.0625 -0.671875 0.71875 -1.0625q0.53125 -0.3125 1.234375 -0.3125q0.15625 0 0.3125 0.015625q0.921875 0.078125 1.25 0.609375q0.296875 0.484375 0.296875 1.171875l0 0.109375q-0.03125 0.78125 -1.328125 1.859375q2.21875 -0.140625 3.40625 -1.0q1.171875 -0.875 1.78125 -2.328125l1.796875 0.75q-0.90625 1.578125 -1.75 2.234375q-0.84375 0.640625 -2.203125 1.0625q-1.359375 0.40625 -3.453125 0.40625l-3.203125 0l0 -0.90625q2.03125 -0.359375 2.84375 -1.140625zm15.96875 14.890625q0 -1.046875 -1.03125 -1.046875q-1.03125 0 -1.03125 1.046875q0 1.046875 1.03125 1.046875q1.03125 0 1.03125 -1.046875zm4.234375 12.984375q0 0.515625 -0.90625 0.515625q-0.9375 0 -0.9375 -0.515625l0 -11.875q0 -2.328125 -1.625 -2.515625q0.625 0.609375 0.625 1.40625q0 2.59375 -2.109375 2.59375q-0.234375 0.03125 -0.46875 0.03125q-2.21875 0 -2.25 -2.78125q0.09375 -3.40625 3.453125 -3.40625q4.21875 0 4.21875 4.71875l0 11.828125zm8.503601 -0.859375q1.109375 0 1.109375 -1.03125q0 -1.03125 -1.109375 -1.03125q-1.125 0 -1.125 1.03125q0 1.03125 1.125 1.03125zm10.328125 -13.359375q1.0 1.21875 1.0 3.0625l0 8.671875q0 3.0 -3.328125 3.0q-0.875 0 -1.78125 -0.75q-0.9375 -0.734375 -1.53125 -2.1875q-0.59375 -1.453125 -1.453125 -2.109375q-0.84375 -0.640625 -2.0625 -0.640625q-2.453125 0 -2.671875 1.484375q0.65625 -0.625 1.5 -0.625q2.75 0.140625 2.75 2.109375q0.015625 0.234375 0.015625 0.453125q0 2.234375 -2.921875 2.265625q-3.625 -0.09375 -3.625 -3.75q0.28125 -3.703125 4.953125 -3.921875q1.671875 0 3.03125 0.859375q1.359375 0.875 2.15625 2.78125q0.8125 1.921875 1.640625 1.921875q1.34375 0 1.34375 -0.890625l0 -8.671875q0 -0.46875 -0.203125 -1.015625q-2.734375 2.703125 -7.109375 2.703125q-5.8125 0 -5.8125 -3.484375q0 -3.59375 6.390625 -3.59375l0.15625 0q3.734375 0 5.84375 1.03125q0.546875 -1.4375 0.640625 -1.734375q0.046875 -0.1875 0.40625 -0.1875q0.265625 0 0.6875 0.09375q0.875 0.203125 0.875 0.515625q0 0.046875 -0.015625 0.078125q-0.15625 0.390625 -0.875 2.53125zm-2.90625 0.515625q-1.578125 -0.84375 -4.828125 -0.84375q-4.3125 0 -4.3125 1.59375q0 1.53125 3.6875 1.53125q3.46875 0 5.453125 -2.28125zm12.068115 0.71875q0 -1.046875 -1.03125 -1.046875q-1.03125 0 -1.03125 1.046875q0 1.046875 1.03125 1.046875q1.03125 0 1.03125 -1.046875zm4.234375 12.984375q0 0.515625 -0.90625 0.515625q-0.9375 0 -0.9375 -0.515625l0 -11.875q0 -2.328125 -1.625 -2.515625q0.625 0.609375 0.625 1.40625q0 2.59375 -2.109375 2.59375q-0.234375 0.03125 -0.46875 0.03125q-2.21875 0 -2.25 -2.78125q0.09375 -3.40625 3.453125 -3.40625q4.21875 0 4.21875 4.71875l0 11.828125zm6.394226 -13.953125q0 1.09375 0.890625 1.09375q0.875 0 0.875 -1.09375q0 -1.09375 -0.875 -1.09375q-0.890625 0 -0.890625 1.09375zm3.640625 10.5q1.046875 0.265625 1.859375 0.96875q1.3125 1.140625 2.984375 1.140625q3.0625 0 3.0625 -2.59375l0 -12.125q0 -0.484375 0.953125 -0.484375q0.9375 0 0.9375 0.5l0 12.1875q0 4.375 -4.953125 4.375q-2.265625 0 -3.609375 -1.203125q-0.84375 -0.765625 -1.6875 -1.0625q-1.015625 2.203125 -3.609375 2.203125l-0.125 0q-0.40625 -0.015625 -0.40625 -0.796875q0 -0.765625 0.1875 -0.8125q0.203125 -0.0625 1.015625 -0.15625q0.828125 -0.109375 1.109375 -0.9375q0.28125 -0.84375 0.40625 -2.3125l0 -6.859375q-0.4375 0.03125 -0.75 0.03125q-2.6875 0 -2.6875 -2.5625q0 -2.5625 2.6875 -2.59375q2.6875 0.03125 2.6875 2.59375l0 9.40625q0 0.59375 -0.0625 1.09375z" fill-rule="nonzero"/><path fill="#000000" d="m575.05774 252.94275q-1.015625 0 -1.015625 1.03125q0 1.03125 1.015625 1.03125q1.0 0 1.0 -1.03125q0 -1.03125 -1.0 -1.03125zm0.546875 12.515625q-1.484375 0 -2.75 -1.078125q-1.25 -1.09375 -1.25 -2.515625q0 -3.109375 4.390625 -4.375l3.171875 -0.921875q5.5625 -1.5 5.5625 -3.359375q-0.078125 -1.28125 -1.4375 -2.0625q-1.34375 -0.796875 -4.5625 -0.796875q-4.421875 0 -5.046875 1.828125q0.59375 -0.625 1.359375 -0.625q2.515625 0 2.515625 2.109375q0.03125 0.234375 0.03125 0.453125q0 2.25 -2.671875 2.265625q-3.3125 -0.078125 -3.3125 -3.453125q0 -4.53125 7.125 -4.53125q2.109375 0.03125 3.1875 0.203125q1.265625 0.234375 2.328125 0.78125q1.0625 0.5625 1.78125 1.484375q0.6875 0.9375 0.6875 2.390625q0 3.234375 -6.84375 5.15625l-3.578125 1.015625q-2.71875 0.796875 -2.71875 2.4375q0.015625 0.5625 0.625 1.09375q0.609375 0.515625 1.375 0.515625q0.921875 0 3.40625 -0.90625q2.5 -0.90625 3.734375 -0.90625q1.484375 0 2.75 1.25l0.5625 0.65625q0.421875 0.640625 0.546875 1.265625l0 0.140625q0 0.484375 -0.75 0.484375q-0.859375 0 -0.90625 -0.390625q-0.109375 -0.296875 -0.765625 -0.859375q-0.65625 -0.5625 -1.40625 -0.5625q-0.921875 0 -3.46875 0.890625q-2.546875 0.890625 -3.671875 0.921875zm2.9412842 -21.765625q-0.140625 -0.984375 -0.9375 -0.984375q-0.328125 0 -0.515625 0.109375q-0.1875 0.109375 -0.28125 0.265625q-0.109375 0.140625 -0.140625 0.3125q-0.03125 0.171875 -0.03125 0.28125q0 0.46875 0.3125 0.703125q0.25 0.21875 0.53125 0.21875l0.078125 0q0.46875 0 0.703125 -0.234375q0.21875 -0.25 0.28125 -0.671875zm7.03125 2.421875l0 -0.078125q0 -3.53125 -3.578125 -3.53125l-2.375 0q0.296875 0.484375 0.421875 0.828125q0.046875 0.1875 0.046875 0.390625q0 0.1875 -0.046875 0.421875q-0.125 0.453125 -0.390625 0.921875q-0.28125 0.46875 -0.578125 0.640625q-0.3125 0.171875 -0.71875 0.296875q-0.40625 0.109375 -0.8125 0.109375q-0.03125 0 -0.0625 -0.015625q-0.453125 0 -0.96875 -0.15625q-0.515625 -0.171875 -0.78125 -0.4375q-0.265625 -0.265625 -0.46875 -0.59375q-0.328125 -0.734375 -0.328125 -1.0625l0 -0.015625q0 -0.296875 0.125 -0.84375q0.125 -0.546875 0.28125 -0.71875q0.453125 -0.734375 1.21875 -1.046875q0.75 -0.3125 1.65625 -0.40625q0.890625 -0.09375 1.765625 -0.09375l1.984375 0q5.421875 0 5.703125 5.390625l-2.09375 0zm7.21875 4.875q0 1.09375 0.890625 1.09375q0.875 0 0.875 -1.09375q0 -1.09375 -0.875 -1.09375q-0.890625 0 -0.890625 1.09375zm3.640625 10.5q1.046875 0.265625 1.859375 0.96875q1.3125 1.140625 2.984375 1.140625q3.0625 0 3.0625 -2.59375l0 -12.125q0 -0.484375 0.953125 -0.484375q0.9375 0 0.9375 0.5l0 12.1875q0 4.375 -4.953125 4.375q-2.265625 0 -3.609375 -1.203125q-0.84375 -0.765625 -1.6875 -1.0625q-1.015625 2.203125 -3.609375 2.203125l-0.125 0q-0.40625 -0.015625 -0.40625 -0.796875q0 -0.765625 0.1875 -0.8125q0.203125 -0.0625 1.015625 -0.15625q0.828125 -0.109375 1.109375 -0.9375q0.28125 -0.84375 0.40625 -2.3125l0 -6.859375q-0.4375 0.03125 -0.75 0.03125q-2.6875 0 -2.6875 -2.5625q0 -2.5625 2.6875 -2.59375q2.6875 0.03125 2.6875 2.59375l0 9.40625q0 0.59375 -0.0625 1.09375zm18.30249 2.59375q1.109375 0 1.109375 -1.03125q0 -1.03125 -1.109375 -1.03125q-1.125 0 -1.125 1.03125q0 1.03125 1.125 1.03125zm10.328125 -13.359375q1.0 1.21875 1.0 3.0625l0 8.671875q0 3.0 -3.328125 3.0q-0.875 0 -1.78125 -0.75q-0.9375 -0.734375 -1.53125 -2.1875q-0.59375 -1.453125 -1.453125 -2.109375q-0.84375 -0.640625 -2.0625 -0.640625q-2.453125 0 -2.671875 1.484375q0.65625 -0.625 1.5 -0.625q2.75 0.140625 2.75 2.109375q0.015625 0.234375 0.015625 0.453125q0 2.234375 -2.921875 2.265625q-3.625 -0.09375 -3.625 -3.75q0.28125 -3.703125 4.953125 -3.921875q1.671875 0 3.03125 0.859375q1.359375 0.875 2.15625 2.78125q0.8125 1.921875 1.640625 1.921875q1.34375 0 1.34375 -0.890625l0 -8.671875q0 -0.46875 -0.203125 -1.015625q-2.734375 2.703125 -7.109375 2.703125q-5.8125 0 -5.8125 -3.484375q0 -3.59375 6.390625 -3.59375l0.15625 0q3.734375 0 5.84375 1.03125q0.546875 -1.4375 0.640625 -1.734375q0.046875 -0.1875 0.40625 -0.1875q0.265625 0 0.6875 0.09375q0.875 0.203125 0.875 0.515625q0 0.046875 -0.015625 0.078125q-0.15625 0.390625 -0.875 2.53125zm-2.90625 0.515625q-1.578125 -0.84375 -4.828125 -0.84375q-4.3125 0 -4.3125 1.59375q0 1.53125 3.6875 1.53125q3.46875 0 5.453125 -2.28125zm-3.9474487 -7.546875q-0.140625 -0.984375 -0.9375 -0.984375q-0.328125 0 -0.515625 0.109375q-0.1875 0.109375 -0.28125 0.265625q-0.109375 0.140625 -0.140625 0.3125q-0.03125 0.171875 -0.03125 0.28125q0 0.46875 0.3125 0.703125q0.25 0.21875 0.53125 0.21875l0.078125 0q0.46875 0 0.703125 -0.234375q0.21875 -0.25 0.28125 -0.671875zm7.03125 2.421875l0 -0.078125q0 -3.53125 -3.578125 -3.53125l-2.375 0q0.296875 0.484375 0.421875 0.828125q0.046875 0.1875 0.046875 0.390625q0 0.1875 -0.046875 0.421875q-0.125 0.453125 -0.390625 0.921875q-0.28125 0.46875 -0.578125 0.640625q-0.3125 0.171875 -0.71875 0.296875q-0.40625 0.109375 -0.8125 0.109375q-0.03125 0 -0.0625 -0.015625q-0.453125 0 -0.96875 -0.15625q-0.515625 -0.171875 -0.78125 -0.4375q-0.265625 -0.265625 -0.46875 -0.59375q-0.328125 -0.734375 -0.328125 -1.0625l0 -0.015625q0 -0.296875 0.125 -0.84375q0.125 -0.546875 0.28125 -0.71875q0.453125 -0.734375 1.21875 -1.046875q0.75 -0.3125 1.65625 -0.40625q0.890625 -0.09375 1.765625 -0.09375l1.984375 0q5.421875 0 5.703125 5.390625l-2.09375 0zm-7.671875 -11.765625l1.828125 0l0 4.765625l-1.828125 0l0 -4.765625zm16.203125 16.5625q-1.03125 0 -1.03125 1.046875q0 1.046875 1.03125 1.046875q1.046875 0 1.046875 -1.046875q0 -1.046875 -1.046875 -1.046875zm-1.375 20.859375q-0.375 -0.03125 -1.0 -0.09375q-0.609375 -0.0625 -0.609375 -1.078125q0 -0.921875 0.515625 -0.921875l0.109375 0q0.625 0.109375 1.09375 0.125q1.390625 -0.0625 2.15625 -0.265625q0.78125 -0.203125 1.421875 -0.78125q0.640625 -0.578125 0.859375 -1.3125q0.234375 -0.734375 0.234375 -2.28125l0 -12.1875q0 -2.234375 -1.609375 -2.421875q0.640625 0.609375 0.640625 1.40625q0 2.59375 -2.109375 2.59375q-0.25 0.03125 -0.46875 0.03125q-2.265625 0 -2.5625 -2.78125q0.390625 -3.40625 3.75 -3.40625q4.375 0 4.375 4.671875l0 14.609375q0 1.203125 -1.0625 2.265625q-1.046875 1.0625 -2.3125 1.40625q-1.265625 0.359375 -3.421875 0.421875z" fill-rule="nonzero"/><path fill="#000000" d="m664.4069 252.94275q-1.015625 0 -1.015625 1.03125q0 1.03125 1.015625 1.03125q1.0 0 1.0 -1.03125q0 -1.03125 -1.0 -1.03125zm0.546875 12.515625q-1.484375 0 -2.75 -1.078125q-1.25 -1.09375 -1.25 -2.515625q0 -3.109375 4.390625 -4.375l3.171875 -0.921875q5.5625 -1.5 5.5625 -3.359375q-0.078125 -1.28125 -1.4375 -2.0625q-1.34375 -0.796875 -4.5625 -0.796875q-4.421875 0 -5.046875 1.828125q0.59375 -0.625 1.359375 -0.625q2.515625 0 2.515625 2.109375q0.03125 0.234375 0.03125 0.453125q0 2.25 -2.671875 2.265625q-3.3125 -0.078125 -3.3125 -3.453125q0 -4.53125 7.125 -4.53125q2.109375 0.03125 3.1875 0.203125q1.265625 0.234375 2.328125 0.78125q1.0625 0.5625 1.78125 1.484375q0.6875 0.9375 0.6875 2.390625q0 3.234375 -6.84375 5.15625l-3.578125 1.015625q-2.71875 0.796875 -2.71875 2.4375q0.015625 0.5625 0.625 1.09375q0.609375 0.515625 1.375 0.515625q0.921875 0 3.40625 -0.90625q2.5 -0.90625 3.734375 -0.90625q1.484375 0 2.75 1.25l0.5625 0.65625q0.421875 0.640625 0.546875 1.265625l0 0.140625q0 0.484375 -0.75 0.484375q-0.859375 0 -0.90625 -0.390625q-0.109375 -0.296875 -0.765625 -0.859375q-0.65625 -0.5625 -1.40625 -0.5625q-0.921875 0 -3.46875 0.890625q-2.546875 0.890625 -3.671875 0.921875zm18.95691 -13.5q0 -1.046875 -1.03125 -1.046875q-1.03125 0 -1.03125 1.046875q0 1.046875 1.03125 1.046875q1.03125 0 1.03125 -1.046875zm4.234375 12.984375q0 0.515625 -0.90625 0.515625q-0.9375 0 -0.9375 -0.515625l0 -11.875q0 -2.328125 -1.625 -2.515625q0.625 0.609375 0.625 1.40625q0 2.59375 -2.109375 2.59375q-0.234375 0.03125 -0.46875 0.03125q-2.21875 0 -2.25 -2.78125q0.09375 -3.40625 3.453125 -3.40625q4.21875 0 4.21875 4.71875l0 11.828125zm9.409851 -14.1875q0 -1.015625 -1.0625 -1.015625q-1.0625 0 -1.0625 1.015625q0 1.0 1.0625 1.0q1.0625 0 1.0625 -1.0zm-2.640625 9.375q0 3.46875 5.546875 3.46875q5.5 0 5.5 -3.28125l0 -11.453125q0 -0.46875 1.015625 -0.46875q1.0 0 1.0 0.453125l-0.015625 11.46875q-0.015625 5.140625 -7.546875 5.140625q-7.546875 0 -7.546875 -5.328125q0 -2.375 2.484375 -3.3125q-2.484375 -0.9375 -2.484375 -3.3125l0 -0.703125q0 -4.3125 3.625 -4.40625q2.65625 0.03125 2.65625 2.203125q0 0.21875 -0.03125 0.453125q0 2.09375 -2.328125 2.09375q-1.109375 0 -1.734375 -0.640625l-0.140625 -0.1875l0 1.1875q0 1.421875 0.9375 1.9375q0.9375 0.5 2.015625 0.5q1.0625 0 1.0625 0.859375q0 0.890625 -1.0625 0.890625q-1.078125 0 -2.015625 0.515625q-0.9375 0.5 -0.9375 1.921875zm22.474365 -9.375q0 -1.015625 -1.0625 -1.015625q-1.0625 0 -1.0625 1.015625q0 1.0 1.0625 1.0q1.0625 0 1.0625 -1.0zm-2.640625 9.375q0 3.46875 5.546875 3.46875q5.5 0 5.5 -3.28125l0 -11.453125q0 -0.46875 1.015625 -0.46875q1.0 0 1.0 0.453125l-0.015625 11.46875q-0.015625 5.140625 -7.546875 5.140625q-7.546875 0 -7.546875 -5.328125q0 -2.375 2.484375 -3.3125q-2.484375 -0.9375 -2.484375 -3.3125l0 -0.703125q0 -4.3125 3.625 -4.40625q2.65625 0.03125 2.65625 2.203125q0 0.21875 -0.03125 0.453125q0 2.09375 -2.328125 2.09375q-1.109375 0 -1.734375 -0.640625l-0.140625 -0.1875l0 1.1875q0 1.421875 0.9375 1.9375q0.9375 0.5 2.015625 0.5q1.0625 0 1.0625 0.859375q0 0.890625 -1.0625 0.890625q-1.078125 0 -2.015625 0.515625q-0.9375 0.5 -0.9375 1.921875zm5.2088013 -16.4375q-0.140625 -0.984375 -0.9375 -0.984375q-0.328125 0 -0.515625 0.109375q-0.1875 0.109375 -0.28125 0.265625q-0.109375 0.140625 -0.140625 0.3125q-0.03125 0.171875 -0.03125 0.28125q0 0.46875 0.3125 0.703125q0.25 0.21875 0.53125 0.21875l0.078125 0q0.46875 0 0.703125 -0.234375q0.21875 -0.25 0.28125 -0.671875zm7.03125 2.421875l0 -0.078125q0 -3.53125 -3.578125 -3.53125l-2.375 0q0.296875 0.484375 0.421875 0.828125q0.046875 0.1875 0.046875 0.390625q0 0.1875 -0.046875 0.421875q-0.125 0.453125 -0.390625 0.921875q-0.28125 0.46875 -0.578125 0.640625q-0.3125 0.171875 -0.71875 0.296875q-0.40625 0.109375 -0.8125 0.109375q-0.03125 0 -0.0625 -0.015625q-0.453125 0 -0.96875 -0.15625q-0.515625 -0.171875 -0.78125 -0.4375q-0.265625 -0.265625 -0.46875 -0.59375q-0.328125 -0.734375 -0.328125 -1.0625l0 -0.015625q0 -0.296875 0.125 -0.84375q0.125 -0.546875 0.28125 -0.71875q0.453125 -0.734375 1.21875 -1.046875q0.75 -0.3125 1.65625 -0.40625q0.890625 -0.09375 1.765625 -0.09375l1.984375 0q5.421875 0 5.703125 5.390625l-2.09375 0zm8.046875 17.9375q0.953125 0 0.953125 -0.90625q0 -0.90625 -0.953125 -0.90625q-0.953125 0 -0.953125 0.90625q0 0.90625 0.953125 0.90625zm-0.078125 -14.21875q-0.890625 0 -0.890625 0.640625q0 0.671875 0.609375 0.765625q0.109375 0.015625 0.21875 0.015625q0.515625 0 1.09375 -0.375q-0.125 -0.953125 -1.03125 -1.046875zm3.046875 13.0625q-0.09375 2.375 -2.859375 2.5625q-2.484375 -0.046875 -2.609375 -2.40625q0.234375 -1.953125 1.921875 -2.34375q0.328125 -0.046875 0.578125 -0.046875q0.609375 0 0.953125 0.25l0 -8.078125q-0.484375 0.0625 -0.921875 0.125q-2.53125 -0.203125 -2.53125 -2.359375q0 -2.125 2.328125 -2.203125q2.078125 0 3.140625 1.609375q2.46875 -1.53125 4.921875 -1.609375q5.390625 0.125 5.796875 4.078125l0 12.453125q0 0.53125 -1.0 0.53125q-1.015625 0 -1.015625 -0.625l0 -12.3125q-0.015625 -2.0 -3.78125 -2.25q-2.5625 0.328125 -3.59375 0.921875q-1.015625 0.59375 -1.328125 0.90625l0 10.796875z" fill-rule="nonzero"/><path fill="#000000" d="m773.93414 252.94275q-1.015625 0 -1.015625 1.03125q0 1.03125 1.015625 1.03125q1.0 0 1.0 -1.03125q0 -1.03125 -1.0 -1.03125zm0.546875 12.515625q-1.484375 0 -2.75 -1.078125q-1.25 -1.09375 -1.25 -2.515625q0 -3.109375 4.390625 -4.375l3.171875 -0.921875q5.5625 -1.5 5.5625 -3.359375q-0.078125 -1.28125 -1.4375 -2.0625q-1.34375 -0.796875 -4.5625 -0.796875q-4.421875 0 -5.046875 1.828125q0.59375 -0.625 1.359375 -0.625q2.515625 0 2.515625 2.109375q0.03125 0.234375 0.03125 0.453125q0 2.25 -2.671875 2.265625q-3.3125 -0.078125 -3.3125 -3.453125q0 -4.53125 7.125 -4.53125q2.109375 0.03125 3.1875 0.203125q1.265625 0.234375 2.328125 0.78125q1.0625 0.5625 1.78125 1.484375q0.6875 0.9375 0.6875 2.390625q0 3.234375 -6.84375 5.15625l-3.578125 1.015625q-2.71875 0.796875 -2.71875 2.4375q0.015625 0.5625 0.625 1.09375q0.609375 0.515625 1.375 0.515625q0.921875 0 3.40625 -0.90625q2.5 -0.90625 3.734375 -0.90625q1.484375 0 2.75 1.25l0.5625 0.65625q0.421875 0.640625 0.546875 1.265625l0 0.140625q0 0.484375 -0.75 0.484375q-0.859375 0 -0.90625 -0.390625q-0.109375 -0.296875 -0.765625 -0.859375q-0.65625 -0.5625 -1.40625 -0.5625q-0.921875 0 -3.46875 0.890625q-2.546875 0.890625 -3.671875 0.921875zm18.95691 -13.5q0 -1.046875 -1.03125 -1.046875q-1.03125 0 -1.03125 1.046875q0 1.046875 1.03125 1.046875q1.03125 0 1.03125 -1.046875zm4.234375 12.984375q0 0.515625 -0.90625 0.515625q-0.9375 0 -0.9375 -0.515625l0 -11.875q0 -2.328125 -1.625 -2.515625q0.625 0.609375 0.625 1.40625q0 2.59375 -2.109375 2.59375q-0.234375 0.03125 -0.46875 0.03125q-2.21875 0 -2.25 -2.78125q0.09375 -3.40625 3.453125 -3.40625q4.21875 0 4.21875 4.71875l0 11.828125zm9.409851 -14.1875q0 -1.015625 -1.0625 -1.015625q-1.0625 0 -1.0625 1.015625q0 1.0 1.0625 1.0q1.0625 0 1.0625 -1.0zm-2.640625 9.375q0 3.46875 5.546875 3.46875q5.5 0 5.5 -3.28125l0 -11.453125q0 -0.46875 1.015625 -0.46875q1.0 0 1.0 0.453125l-0.015625 11.46875q-0.015625 5.140625 -7.546875 5.140625q-7.546875 0 -7.546875 -5.328125q0 -2.375 2.484375 -3.3125q-2.484375 -0.9375 -2.484375 -3.3125l0 -0.703125q0 -4.3125 3.625 -4.40625q2.65625 0.03125 2.65625 2.203125q0 0.21875 -0.03125 0.453125q0 2.09375 -2.328125 2.09375q-1.109375 0 -1.734375 -0.640625l-0.140625 -0.1875l0 1.1875q0 1.421875 0.9375 1.9375q0.9375 0.5 2.015625 0.5q1.0625 0 1.0625 0.859375q0 0.890625 -1.0625 0.890625q-1.078125 0 -2.015625 0.515625q-0.9375 0.5 -0.9375 1.921875zm22.474365 -9.375q0 -1.015625 -1.0625 -1.015625q-1.0625 0 -1.0625 1.015625q0 1.0 1.0625 1.0q1.0625 0 1.0625 -1.0zm-2.640625 9.375q0 3.46875 5.546875 3.46875q5.5 0 5.5 -3.28125l0 -11.453125q0 -0.46875 1.015625 -0.46875q1.0 0 1.0 0.453125l-0.015625 11.46875q-0.015625 5.140625 -7.546875 5.140625q-7.546875 0 -7.546875 -5.328125q0 -2.375 2.484375 -3.3125q-2.484375 -0.9375 -2.484375 -3.3125l0 -0.703125q0 -4.3125 3.625 -4.40625q2.65625 0.03125 2.65625 2.203125q0 0.21875 -0.03125 0.453125q0 2.09375 -2.328125 2.09375q-1.109375 0 -1.734375 -0.640625l-0.140625 -0.1875l0 1.1875q0 1.421875 0.9375 1.9375q0.9375 0.5 2.015625 0.5q1.0625 0 1.0625 0.859375q0 0.890625 -1.0625 0.890625q-1.078125 0 -2.015625 0.515625q-0.9375 0.5 -0.9375 1.921875zm8.193176 -18.78125l1.828125 0l0 4.75l-1.828125 0l0 -4.75zm12.78125 19.359375q0 -0.328125 -0.21875 -0.53125q-0.21875 -0.21875 -0.53125 -0.21875q-0.359375 0 -0.59375 0.21875q-0.234375 0.21875 -0.234375 0.546875q0 0.34375 0.234375 0.5625q0.234375 0.203125 0.59375 0.203125q0.3125 0 0.53125 -0.203125q0.21875 -0.21875 0.21875 -0.5625l0 -0.015625zm9.765625 -6.9375q0.015625 -0.171875 0.015625 -0.328125q0 -0.9375 -0.515625 -1.515625q-0.625 -0.671875 -1.609375 -1.0q-0.96875 -0.328125 -2.171875 -0.484375q-0.5625 -0.0625 -1.140625 -0.0625q-0.734375 0 -1.546875 0.09375q-1.453125 0.1875 -2.265625 0.59375q-0.796875 0.390625 -1.296875 1.15625q-0.40625 0.625 -0.40625 1.265625q0 0.140625 0.03125 0.28125q0.109375 0.765625 0.9375 1.375q0.84375 0.609375 2.609375 0.796875q0.8125 0.078125 1.578125 0.078125q0.890625 0 1.71875 -0.109375q1.546875 -0.21875 2.578125 -0.65625q1.03125 -0.4375 1.484375 -1.484375zm-5.921875 11.6875q-3.078125 -0.140625 -4.53125 -0.984375q-1.25 -0.578125 -1.84375 -1.46875q-0.59375 -0.90625 -0.65625 -2.0q0.125 -0.9375 0.53125 -1.515625q0.40625 -0.578125 1.15625 -0.765625q0.390625 -0.109375 0.765625 -0.109375q0.3125 0 0.609375 0.078125q0.640625 0.171875 0.984375 0.5625q0.34375 0.390625 0.46875 0.828125q0.0625 0.265625 0.0625 0.5625q0 0.1875 -0.03125 0.390625q-0.09375 0.515625 -0.453125 0.984375q-0.359375 0.4375 -0.671875 0.4375l-0.046875 0q0.328125 0.453125 2.0 0.71875q1.25 0.21875 2.21875 0.21875q0.328125 0 0.609375 -0.015625q1.15625 -0.09375 2.046875 -0.375q0.890625 -0.296875 1.515625 -0.703125q0.625 -0.421875 1.078125 -1.25q0.375 -0.6875 0.375 -1.859375q0 -0.25 -0.015625 -0.5l0 -2.375q-0.734375 0.6875 -1.75 1.046875q-1.015625 0.359375 -2.5625 0.484375q-1.15625 0.109375 -2.203125 0.109375q-0.34375 0 -0.6875 -0.015625q-1.34375 -0.046875 -2.3125 -0.34375q-0.953125 -0.3125 -1.78125 -0.828125q-0.8125 -0.53125 -1.296875 -1.328125q-0.484375 -0.796875 -0.53125 -1.59375q-0.03125 -0.265625 -0.03125 -0.515625q0 -0.515625 0.078125 -0.96875q0.140625 -0.6875 0.828125 -1.578125q0.6875 -0.90625 1.875 -1.421875q1.203125 -0.515625 2.4375 -0.734375q1.25 -0.234375 2.265625 -0.234375q1.40625 0 2.875 0.375q1.46875 0.359375 2.453125 1.0q1.0 0.640625 1.625 1.765625q0.625 1.125 0.625 2.734375l0 6.015625q0 0.90625 -0.46875 1.921875q-0.5625 0.90625 -1.25 1.453125q-0.6875 0.546875 -1.75 1.015625q-1.0625 0.453125 -2.984375 0.640625l-1.625 0.140625zm17.48999 -14.703125q0 -1.015625 -1.0625 -1.015625q-1.0625 0 -1.0625 1.015625q0 1.0 1.0625 1.0q1.0625 0 1.0625 -1.0zm-2.640625 9.375q0 3.46875 5.546875 3.46875q5.5 0 5.5 -3.28125l0 -11.453125q0 -0.46875 1.015625 -0.46875q1.0 0 1.0 0.453125l-0.015625 11.46875q-0.015625 5.140625 -7.546875 5.140625q-7.546875 0 -7.546875 -5.328125q0 -2.375 2.484375 -3.3125q-2.484375 -0.9375 -2.484375 -3.3125l0 -0.703125q0 -4.3125 3.625 -4.40625q2.65625 0.03125 2.65625 2.203125q0 0.21875 -0.03125 0.453125q0 2.09375 -2.328125 2.09375q-1.109375 0 -1.734375 -0.640625l-0.140625 -0.1875l0 1.1875q0 1.421875 0.9375 1.9375q0.9375 0.5 2.015625 0.5q1.0625 0 1.0625 0.859375q0 0.890625 -1.0625 0.890625q-1.078125 0 -2.015625 0.515625q-0.9375 0.5 -0.9375 1.921875z" fill-rule="nonzero"/><path fill="#000000" fill-opacity="0.0" d="m370.68503 219.10236l288.25198 0l0 281.7953l-288.25198 0z" fill-rule="evenodd"/><path fill="#000000" d="m386.96628 254.72986q0 -0.78125 -0.71875 -0.78125q-0.71875 0 -0.71875 0.78125q0 0.78125 0.71875 0.78125q0.71875 0 0.71875 -0.78125zm-2.921875 -1.765625q0 1.546875 0.25 1.59375q0.15625 -1.734375 2.03125 -1.734375q1.875 0 1.90625 1.8125q-0.09375 2.90625 -2.5625 2.90625q-3.46875 0 -3.46875 -4.578125l0 -8.375q0 -2.453125 1.203125 -3.28125q1.21875 -0.828125 2.34375 -0.828125q1.453125 0 2.453125 0.578125l0 1.703125q-1.34375 -0.328125 -2.453125 -0.328125q-0.984375 0 -1.34375 0.59375q-0.359375 0.578125 -0.359375 1.203125l0 8.734375zm12.044525 -7.9375q-1.015625 0 -1.015625 1.03125q0 1.03125 1.015625 1.03125q1.0 0 1.0 -1.03125q0 -1.03125 -1.0 -1.03125zm0.546875 12.515625q-1.484375 0 -2.75 -1.078125q-1.25 -1.09375 -1.25 -2.515625q0 -3.109375 4.390625 -4.375l3.171875 -0.921875q5.5625 -1.5 5.5625 -3.359375q-0.078125 -1.28125 -1.4375 -2.0625q-1.34375 -0.796875 -4.5625 -0.796875q-4.421875 0 -5.046875 1.828125q0.59375 -0.625 1.359375 -0.625q2.515625 0 2.515625 2.109375q0.03125 0.234375 0.03125 0.453125q0 2.25 -2.671875 2.265625q-3.3125 -0.078125 -3.3125 -3.453125q0 -4.53125 7.125 -4.53125q2.109375 0.03125 3.1875 0.203125q1.265625 0.234375 2.328125 0.78125q1.0625 0.5625 1.78125 1.484375q0.6875 0.9375 0.6875 2.390625q0 3.234375 -6.84375 5.15625l-3.578125 1.015625q-2.71875 0.796875 -2.71875 2.4375q0.015625 0.5625 0.625 1.09375q0.609375 0.515625 1.375 0.515625q0.921875 0 3.40625 -0.90625q2.5 -0.90625 3.734375 -0.90625q1.484375 0 2.75 1.25l0.5625 0.65625q0.421875 0.640625 0.546875 1.265625l0 0.140625q0 0.484375 -0.75 0.484375q-0.859375 0 -0.90625 -0.390625q-0.109375 -0.296875 -0.765625 -0.859375q-0.65625 -0.5625 -1.40625 -0.5625q-0.921875 0 -3.46875 0.890625q-2.546875 0.890625 -3.671875 0.921875zm2.9412842 -21.765625q-0.140625 -0.984375 -0.9375 -0.984375q-0.328125 0 -0.515625 0.109375q-0.1875 0.109375 -0.28125 0.265625q-0.109375 0.140625 -0.140625 0.3125q-0.03125 0.171875 -0.03125 0.28125q0 0.46875 0.3125 0.703125q0.25 0.21875 0.53125 0.21875l0.078125 0q0.46875 0 0.703125 -0.234375q0.21875 -0.25 0.28125 -0.671875zm7.03125 2.421875l0 -0.078125q0 -3.53125 -3.578125 -3.53125l-2.375 0q0.296875 0.484375 0.421875 0.828125q0.046875 0.1875 0.046875 0.390625q0 0.1875 -0.046875 0.421875q-0.125 0.453125 -0.390625 0.921875q-0.28125 0.46875 -0.578125 0.640625q-0.3125 0.171875 -0.71875 0.296875q-0.40625 0.109375 -0.8125 0.109375q-0.03125 0 -0.0625 -0.015625q-0.453125 0 -0.96875 -0.15625q-0.515625 -0.171875 -0.78125 -0.4375q-0.265625 -0.265625 -0.46875 -0.59375q-0.328125 -0.734375 -0.328125 -1.0625l0 -0.015625q0 -0.296875 0.125 -0.84375q0.125 -0.546875 0.28125 -0.71875q0.453125 -0.734375 1.21875 -1.046875q0.75 -0.3125 1.65625 -0.40625q0.890625 -0.09375 1.765625 -0.09375l1.984375 0q5.421875 0 5.703125 5.390625l-2.09375 0zm-6.34375 -9.9375q0.109375 -0.234375 0.109375 -0.40625q0 -0.09375 -0.046875 -0.1875q-0.171875 -0.328125 -0.515625 -0.328125q-0.046875 0 -0.125 0.015625q-0.4375 0.0625 -0.453125 0.4375q-0.015625 0.03125 -0.015625 0.046875q0 0.34375 0.390625 0.390625q0.234375 0.03125 0.5 0.03125l0.15625 0zm-0.640625 0.890625q-0.78125 -0.078125 -1.234375 -0.40625q-0.46875 -0.34375 -0.46875 -0.9375l0 -0.125q0.0625 -0.671875 0.71875 -1.0625q0.53125 -0.3125 1.234375 -0.3125q0.15625 0 0.3125 0.015625q0.921875 0.078125 1.25 0.609375q0.296875 0.484375 0.296875 1.171875l0 0.109375q-0.03125 0.78125 -1.328125 1.859375q2.21875 -0.140625 3.40625 -1.0q1.171875 -0.875 1.78125 -2.328125l1.796875 0.75q-0.90625 1.578125 -1.75 2.234375q-0.84375 0.640625 -2.203125 1.0625q-1.359375 0.40625 -3.453125 0.40625l-3.203125 0l0 -0.90625q2.03125 -0.359375 2.84375 -1.140625zm15.96875 14.890625q0 -1.046875 -1.03125 -1.046875q-1.03125 0 -1.03125 1.046875q0 1.046875 1.03125 1.046875q1.03125 0 1.03125 -1.046875zm4.234375 12.984375q0 0.515625 -0.90625 0.515625q-0.9375 0 -0.9375 -0.515625l0 -11.875q0 -2.328125 -1.625 -2.515625q0.625 0.609375 0.625 1.40625q0 2.59375 -2.109375 2.59375q-0.234375 0.03125 -0.46875 0.03125q-2.21875 0 -2.25 -2.78125q0.09375 -3.40625 3.453125 -3.40625q4.21875 0 4.21875 4.71875l0 11.828125zm7.034851 -12.828125q0.875 0 0.875 -1.109375q0 -1.125 -0.875 -1.125q-0.859375 0 -0.859375 1.125q0 1.109375 0.859375 1.109375zm10.1875 -4.0625q0 -0.859375 0.03125 -1.46875q0.015625 -0.734375 0.109375 -1.359375q0.09375 -0.640625 0.25 -1.15625q0.15625 -0.53125 1.1875 -0.53125q0.890625 0 0.890625 0.25q0 0.046875 -0.03125 0.109375q-0.1875 0.359375 -0.296875 1.015625q-0.109375 0.65625 -0.15625 1.484375q-0.03125 0.8125 -0.03125 1.90625l0 11.171875q0 5.984375 -7.25 5.984375q-7.203125 0 -7.203125 -5.234375q0 -3.03125 1.59375 -5.25q0.546875 -0.78125 0.90625 -1.359375q-2.5 -0.03125 -2.5 -2.609375q0 -2.609375 2.515625 -2.609375l0.0625 0q2.546875 0 2.546875 2.609375q0 2.21875 -1.5625 4.546875q-1.5625 2.3125 -1.5625 4.671875q0 3.21875 5.234375 3.21875q5.25 0 5.25 -3.96875l0 -11.421875l0.015625 0zm-1.6373596 20.71875q0 -0.265625 -0.203125 -0.453125q-0.21875 -0.171875 -0.453125 -0.171875q-0.28125 0 -0.515625 0.1875q-0.203125 0.171875 -0.203125 0.421875l0 0.03125q0 0.203125 0.21875 0.40625q0.21875 0.21875 0.5 0.21875q0.234375 0 0.453125 -0.21875q0.203125 -0.21875 0.203125 -0.421875zm1.9375 1.296875l-0.015625 0q-0.203125 0.515625 -0.328125 0.71875q-0.125 0.203125 -0.34375 0.453125q-0.21875 0.265625 -0.484375 0.53125q-0.28125 0.28125 -1.171875 0.84375l-1.734375 -0.859375q0.703125 -0.296875 1.1875 -0.734375q0.46875 -0.4375 0.609375 -0.796875q-0.515625 0.125 -0.8125 0.140625l-0.046875 0q-0.28125 0 -0.71875 -0.171875q-0.71875 -0.328125 -0.890625 -0.71875q-0.171875 -0.375 -0.171875 -0.96875q0.1875 -0.671875 0.40625 -0.90625q0.203125 -0.21875 0.53125 -0.40625q0.328125 -0.1875 0.609375 -0.265625q0.28125 -0.078125 1.03125 -0.09375l0.078125 0q0.203125 0 0.6875 0.171875q0.46875 0.171875 0.875 0.46875q0.390625 0.3125 0.625 0.9375q0.15625 0.359375 0.15625 0.875q0 0.34375 -0.078125 0.78125zm-4.109375 -27.375q0.109375 -0.28125 0.109375 -0.484375q0 -0.125 -0.046875 -0.234375q-0.171875 -0.390625 -0.515625 -0.390625q-0.046875 0 -0.125 0.015625q-0.4375 0.09375 -0.453125 0.53125q-0.015625 0.03125 -0.015625 0.0625q0 0.40625 0.390625 0.46875q0.203125 0.046875 0.4375 0.046875q0.109375 0 0.21875 -0.015625zm-0.640625 1.078125q-0.78125 -0.109375 -1.234375 -0.5q-0.46875 -0.421875 -0.46875 -1.125l0 -0.15625q0.0625 -0.8125 0.71875 -1.296875q0.53125 -0.359375 1.234375 -0.359375q0.15625 0 0.3125 0q0.921875 0.109375 1.25 0.734375q0.296875 0.59375 0.296875 1.421875l0 0.15625q-0.03125 0.9375 -1.328125 2.25q2.21875 -0.171875 3.40625 -1.21875q1.171875 -1.0625 1.78125 -2.8125l1.796875 0.90625q-0.90625 1.890625 -1.75 2.6875q-0.84375 0.796875 -2.203125 1.296875q-1.359375 0.484375 -3.453125 0.484375l-3.203125 0l0 -1.09375q2.03125 -0.4375 2.84375 -1.375zm12.796875 7.21875q0 1.09375 0.890625 1.09375q0.875 0 0.875 -1.09375q0 -1.09375 -0.875 -1.09375q-0.890625 0 -0.890625 1.09375zm3.640625 10.5q1.046875 0.265625 1.859375 0.96875q1.3125 1.140625 2.984375 1.140625q3.0625 0 3.0625 -2.59375l0 -12.125q0 -0.484375 0.953125 -0.484375q0.9375 0 0.9375 0.5l0 12.1875q0 4.375 -4.953125 4.375q-2.265625 0 -3.609375 -1.203125q-0.84375 -0.765625 -1.6875 -1.0625q-1.015625 2.203125 -3.609375 2.203125l-0.125 0q-0.40625 -0.015625 -0.40625 -0.796875q0 -0.765625 0.1875 -0.8125q0.203125 -0.0625 1.015625 -0.15625q0.828125 -0.109375 1.109375 -0.9375q0.28125 -0.84375 0.40625 -2.3125l0 -6.859375q-0.4375 0.03125 -0.75 0.03125q-2.6875 0 -2.6875 -2.5625q0 -2.5625 2.6875 -2.59375q2.6875 0.03125 2.6875 2.59375l0 9.40625q0 0.59375 -0.0625 1.09375z" fill-rule="nonzero"/><path fill="#000000" d="m386.96628 291.72986q0 -0.78125 -0.71875 -0.78125q-0.71875 0 -0.71875 0.78125q0 0.78125 0.71875 0.78125q0.71875 0 0.71875 -0.78125zm-2.921875 -1.765625q0 1.546875 0.25 1.59375q0.15625 -1.734375 2.03125 -1.734375q1.875 0 1.90625 1.8125q-0.09375 2.90625 -2.5625 2.90625q-3.46875 0 -3.46875 -4.578125l0 -8.375q0 -2.453125 1.203125 -3.28125q1.21875 -0.828125 2.34375 -0.828125q1.453125 0 2.453125 0.578125l0 1.703125q-1.34375 -0.328125 -2.453125 -0.328125q-0.984375 0 -1.34375 0.59375q-0.359375 0.578125 -0.359375 1.203125l0 8.734375zm12.044525 -7.9375q-1.015625 0 -1.015625 1.03125q0 1.03125 1.015625 1.03125q1.0 0 1.0 -1.03125q0 -1.03125 -1.0 -1.03125zm0.546875 12.515625q-1.484375 0 -2.75 -1.078125q-1.25 -1.09375 -1.25 -2.515625q0 -3.109375 4.390625 -4.375l3.171875 -0.921875q5.5625 -1.5 5.5625 -3.359375q-0.078125 -1.28125 -1.4375 -2.0625q-1.34375 -0.796875 -4.5625 -0.796875q-4.421875 0 -5.046875 1.828125q0.59375 -0.625 1.359375 -0.625q2.515625 0 2.515625 2.109375q0.03125 0.234375 0.03125 0.453125q0 2.25 -2.671875 2.265625q-3.3125 -0.078125 -3.3125 -3.453125q0 -4.53125 7.125 -4.53125q2.109375 0.03125 3.1875 0.203125q1.265625 0.234375 2.328125 0.78125q1.0625 0.5625 1.78125 1.484375q0.6875 0.9375 0.6875 2.390625q0 3.234375 -6.84375 5.15625l-3.578125 1.015625q-2.71875 0.796875 -2.71875 2.4375q0.015625 0.5625 0.625 1.09375q0.609375 0.515625 1.375 0.515625q0.921875 0 3.40625 -0.90625q2.5 -0.90625 3.734375 -0.90625q1.484375 0 2.75 1.25l0.5625 0.65625q0.421875 0.640625 0.546875 1.265625l0 0.140625q0 0.484375 -0.75 0.484375q-0.859375 0 -0.90625 -0.390625q-0.109375 -0.296875 -0.765625 -0.859375q-0.65625 -0.5625 -1.40625 -0.5625q-0.921875 0 -3.46875 0.890625q-2.546875 0.890625 -3.671875 0.921875zm2.9412842 -21.765625q-0.140625 -0.984375 -0.9375 -0.984375q-0.328125 0 -0.515625 0.109375q-0.1875 0.109375 -0.28125 0.265625q-0.109375 0.140625 -0.140625 0.3125q-0.03125 0.171875 -0.03125 0.28125q0 0.46875 0.3125 0.703125q0.25 0.21875 0.53125 0.21875l0.078125 0q0.46875 0 0.703125 -0.234375q0.21875 -0.25 0.28125 -0.671875zm7.03125 2.421875l0 -0.078125q0 -3.53125 -3.578125 -3.53125l-2.375 0q0.296875 0.484375 0.421875 0.828125q0.046875 0.1875 0.046875 0.390625q0 0.1875 -0.046875 0.421875q-0.125 0.453125 -0.390625 0.921875q-0.28125 0.46875 -0.578125 0.640625q-0.3125 0.171875 -0.71875 0.296875q-0.40625 0.109375 -0.8125 0.109375q-0.03125 0 -0.0625 -0.015625q-0.453125 0 -0.96875 -0.15625q-0.515625 -0.171875 -0.78125 -0.4375q-0.265625 -0.265625 -0.46875 -0.59375q-0.328125 -0.734375 -0.328125 -1.0625l0 -0.015625q0 -0.296875 0.125 -0.84375q0.125 -0.546875 0.28125 -0.71875q0.453125 -0.734375 1.21875 -1.046875q0.75 -0.3125 1.65625 -0.40625q0.890625 -0.09375 1.765625 -0.09375l1.984375 0q5.421875 0 5.703125 5.390625l-2.09375 0zm-6.34375 -9.9375q0.109375 -0.234375 0.109375 -0.40625q0 -0.09375 -0.046875 -0.1875q-0.171875 -0.328125 -0.515625 -0.328125q-0.046875 0 -0.125 0.015625q-0.4375 0.0625 -0.453125 0.4375q-0.015625 0.03125 -0.015625 0.046875q0 0.34375 0.390625 0.390625q0.234375 0.03125 0.5 0.03125l0.15625 0zm-0.640625 0.890625q-0.78125 -0.078125 -1.234375 -0.40625q-0.46875 -0.34375 -0.46875 -0.9375l0 -0.125q0.0625 -0.671875 0.71875 -1.0625q0.53125 -0.3125 1.234375 -0.3125q0.15625 0 0.3125 0.015625q0.921875 0.078125 1.25 0.609375q0.296875 0.484375 0.296875 1.171875l0 0.109375q-0.03125 0.78125 -1.328125 1.859375q2.21875 -0.140625 3.40625 -1.0q1.171875 -0.875 1.78125 -2.328125l1.796875 0.75q-0.90625 1.578125 -1.75 2.234375q-0.84375 0.640625 -2.203125 1.0625q-1.359375 0.40625 -3.453125 0.40625l-3.203125 0l0 -0.90625q2.03125 -0.359375 2.84375 -1.140625zm15.96875 14.890625q0 -1.046875 -1.03125 -1.046875q-1.03125 0 -1.03125 1.046875q0 1.046875 1.03125 1.046875q1.03125 0 1.03125 -1.046875zm4.234375 12.984375q0 0.515625 -0.90625 0.515625q-0.9375 0 -0.9375 -0.515625l0 -11.875q0 -2.328125 -1.625 -2.515625q0.625 0.609375 0.625 1.40625q0 2.59375 -2.109375 2.59375q-0.234375 0.03125 -0.46875 0.03125q-2.21875 0 -2.25 -2.78125q0.09375 -3.40625 3.453125 -3.40625q4.21875 0 4.21875 4.71875l0 11.828125zm7.034851 -12.828125q0.875 0 0.875 -1.109375q0 -1.125 -0.875 -1.125q-0.859375 0 -0.859375 1.125q0 1.109375 0.859375 1.109375zm10.1875 -4.0625q0 -0.859375 0.03125 -1.46875q0.015625 -0.734375 0.109375 -1.359375q0.09375 -0.640625 0.25 -1.15625q0.15625 -0.53125 1.1875 -0.53125q0.890625 0 0.890625 0.25q0 0.046875 -0.03125 0.109375q-0.1875 0.359375 -0.296875 1.015625q-0.109375 0.65625 -0.15625 1.484375q-0.03125 0.8125 -0.03125 1.90625l0 11.171875q0 5.984375 -7.25 5.984375q-7.203125 0 -7.203125 -5.234375q0 -3.03125 1.59375 -5.25q0.546875 -0.78125 0.90625 -1.359375q-2.5 -0.03125 -2.5 -2.609375q0 -2.609375 2.515625 -2.609375l0.0625 0q2.546875 0 2.546875 2.609375q0 2.21875 -1.5625 4.546875q-1.5625 2.3125 -1.5625 4.671875q0 3.21875 5.234375 3.21875q5.25 0 5.25 -3.96875l0 -11.421875l0.015625 0zm10.347015 20.4375q0 -0.546875 -0.375 -0.890625q-0.375 -0.328125 -1.0 -0.328125q-0.578125 0 -0.90625 0.328125q-0.296875 0.296875 -0.296875 0.734375q0 0.078125 0.015625 0.15625q0.078125 1.015625 1.84375 1.234375q0.71875 -0.515625 0.71875 -1.203125l0 -0.03125zm7.21875 -19.265625q0 0.84375 -0.25 1.453125q-0.234375 0.59375 -0.90625 0.765625q-0.359375 0.09375 -0.765625 0.09375q-0.390625 0 -0.8125 -0.078125q-0.90625 -0.15625 -1.921875 -0.46875q-1.015625 -0.3125 -2.15625 -0.65625q-1.140625 -0.359375 -1.859375 -0.375l-0.140625 0q-0.59375 0 -0.671875 0.28125l0 0.0625q0 0.28125 0.625 0.421875q0.703125 0.171875 1.75 0.453125q1.0625 0.265625 2.296875 0.65625q1.25 0.375 2.328125 0.90625q1.078125 0.515625 1.78125 1.171875q0.703125 0.640625 0.703125 1.421875l0 10.796875q0 0.28125 0.015625 0.828125l0 0.125q0 0.5 -0.09375 1.0625q-0.109375 0.65625 -0.390625 1.234375q-0.265625 0.578125 -0.828125 1.125q-0.5625 0.5625 -1.484375 0.921875q-0.859375 0.34375 -2.359375 0.34375l-0.125 0q-1.453125 0 -2.5 -0.171875q-1.109375 -0.1875 -2.046875 -0.59375q-0.9375 -0.40625 -1.359375 -0.984375q-0.421875 -0.578125 -0.421875 -1.546875l0 -0.109375q0 -1.09375 0.8125 -1.890625q0.8125 -0.8125 1.734375 -0.890625q0.25 -0.015625 0.46875 -0.015625q0.59375 0 1.0 0.125q0.5625 0.203125 1.0 0.5625q0.4375 0.359375 0.75 0.984375q0.21875 0.46875 0.21875 1.046875q0 0.203125 -0.03125 0.453125q-0.125 0.84375 -0.5 1.15625q0.53125 0.140625 1.09375 0.140625q0.171875 0 0.328125 -0.015625q0.71875 -0.046875 1.375 -0.375q0.65625 -0.3125 0.890625 -1.015625q0.234375 -0.703125 0.296875 -1.53125q0.0625 -0.8125 0.0625 -1.546875l0 -9.28125q0 -1.3125 -3.515625 -2.578125l-4.46875 -1.515625q-1.3125 -0.40625 -1.3125 -1.484375q0 -0.09375 0.015625 -0.21875q0.125 -0.84375 0.4375 -1.28125q0.3125 -0.453125 0.75 -0.609375q0.4375 -0.171875 1.21875 -0.1875l0.078125 0q0.78125 0 2.078125 0.234375q1.390625 0.265625 2.390625 0.546875q1.015625 0.28125 1.671875 0.421875q0.0625 0.015625 0.125 0.015625q0.53125 0 0.53125 -1.203125l2.09375 0l0 0.8125zm7.2368774 14.828125q0.953125 0 0.953125 -0.90625q0 -0.90625 -0.953125 -0.90625q-0.953125 0 -0.953125 0.90625q0 0.90625 0.953125 0.90625zm-0.078125 -14.21875q-0.890625 0 -0.890625 0.640625q0 0.671875 0.609375 0.765625q0.109375 0.015625 0.21875 0.015625q0.515625 0 1.09375 -0.375q-0.125 -0.953125 -1.03125 -1.046875zm3.046875 13.0625q-0.09375 2.375 -2.859375 2.5625q-2.484375 -0.046875 -2.609375 -2.40625q0.234375 -1.953125 1.921875 -2.34375q0.328125 -0.046875 0.578125 -0.046875q0.609375 0 0.953125 0.25l0 -8.078125q-0.484375 0.0625 -0.921875 0.125q-2.53125 -0.203125 -2.53125 -2.359375q0 -2.125 2.328125 -2.203125q2.078125 0 3.140625 1.609375q2.46875 -1.53125 4.921875 -1.609375q5.390625 0.125 5.796875 4.078125l0 12.453125q0 0.53125 -1.0 0.53125q-1.015625 0 -1.015625 -0.625l0 -12.3125q-0.015625 -2.0 -3.78125 -2.25q-2.5625 0.328125 -3.59375 0.921875q-1.015625 0.59375 -1.328125 0.90625l0 10.796875z" fill-rule="nonzero"/><path fill="#000000" d="m386.96628 328.72986q0 -0.78125 -0.71875 -0.78125q-0.71875 0 -0.71875 0.78125q0 0.78125 0.71875 0.78125q0.71875 0 0.71875 -0.78125zm-2.921875 -1.765625q0 1.546875 0.25 1.59375q0.15625 -1.734375 2.03125 -1.734375q1.875 0 1.90625 1.8125q-0.09375 2.90625 -2.5625 2.90625q-3.46875 0 -3.46875 -4.578125l0 -8.375q0 -2.453125 1.203125 -3.28125q1.21875 -0.828125 2.34375 -0.828125q1.453125 0 2.453125 0.578125l0 1.703125q-1.34375 -0.328125 -2.453125 -0.328125q-0.984375 0 -1.34375 0.59375q-0.359375 0.578125 -0.359375 1.203125l0 8.734375zm13.0289 -10.125q0 -1.03125 -0.9375 -1.03125q-0.9375 0 -0.9375 1.03125q0 1.03125 0.9375 1.03125q0.9375 0 0.9375 -1.03125zm10.75 9.265625q0 5.4375 -4.3125 5.4375q-2.21875 0 -3.25 -1.515625q-1.015625 1.515625 -3.21875 1.515625q-4.09375 0 -4.09375 -5.4375l0 -7.171875q0 -4.40625 3.1875 -4.453125l0.03125 0q2.484375 0 2.484375 2.5l0 0.140625q-0.203125 2.015625 -2.25 2.140625l-0.1875 0q-1.296875 0 -1.296875 -0.375l0 7.21875q0 3.421875 2.15625 3.421875q2.1875 0 2.1875 -2.765625l0 -1.203125q0 -0.90625 1.015625 -0.90625q1.015625 0 1.03125 0.890625l-0.046875 0.875l0 0.234375q0 2.875 2.203125 2.875q2.3125 0 2.3125 -3.421875l0 -11.96875l0.015625 0q0 -0.859375 0.03125 -1.46875q0.015625 -0.734375 0.09375 -1.359375q0.09375 -0.640625 0.234375 -1.15625q0.15625 -0.53125 1.203125 -0.53125q0.875 0 0.875 0.265625q0 0.046875 -0.03125 0.09375q-0.15625 0.359375 -0.265625 1.015625q-0.09375 0.65625 -0.109375 1.484375q0 0.8125 0 1.90625l0 11.71875zm-0.12265015 -13.90625l-4.5 0q-1.234375 0 -1.234375 -0.765625q0.046875 -0.390625 0.3125 -0.5625q0.25 -0.171875 0.921875 -0.453125q0.6875 -0.390625 1.140625 -0.84375q0.28125 -0.3125 0.28125 -0.65625q0 -0.171875 -0.078125 -0.375q-0.234375 -0.53125 -1.296875 -0.96875q-1.0 -0.40625 -2.796875 -0.40625l-0.578125 0q-1.828125 0 -2.71875 0.3125q-0.953125 0.359375 -1.203125 0.953125q-0.09375 0.21875 -0.09375 0.4375q0 0.34375 0.25 0.640625q0.390625 0.484375 0.9375 0.828125q0.90625 0.375 1.140625 0.578125q0.21875 0.203125 0.234375 0.484375q-0.0625 0.796875 -1.015625 0.796875q-0.15625 0 -0.359375 -0.03125q-0.78125 -0.25 -1.328125 -0.59375q-0.546875 -0.359375 -1.0 -0.796875q-0.46875 -0.4375 -0.640625 -0.890625q-0.1875 -0.46875 -0.265625 -1.140625q0 -0.65625 0.703125 -1.5q0.703125 -0.84375 2.0625 -1.25q1.359375 -0.421875 3.609375 -0.53125q2.1875 0.109375 3.640625 0.515625q1.4375 0.40625 2.171875 1.328125q0.71875 0.90625 0.734375 1.453125q0 0.765625 -0.234375 1.125q-0.25 0.34375 -0.96875 0.984375l2.171875 0l0 1.328125z" fill-rule="nonzero"/><path fill="#000000" d="m386.96628 365.72986q0 -0.78125 -0.71875 -0.78125q-0.71875 0 -0.71875 0.78125q0 0.78125 0.71875 0.78125q0.71875 0 0.71875 -0.78125zm-2.921875 -1.765625q0 1.546875 0.25 1.59375q0.15625 -1.734375 2.03125 -1.734375q1.875 0 1.90625 1.8125q-0.09375 2.90625 -2.5625 2.90625q-3.46875 0 -3.46875 -4.578125l0 -8.375q0 -2.453125 1.203125 -3.28125q1.21875 -0.828125 2.34375 -0.828125q1.453125 0 2.453125 0.578125l0 1.703125q-1.34375 -0.328125 -2.453125 -0.328125q-0.984375 0 -1.34375 0.59375q-0.359375 0.578125 -0.359375 1.203125l0 8.734375zm10.74765 -8.796875q0.8125 0 0.8125 -1.09375q0 -1.09375 -0.8125 -1.09375q-0.8125 0 -0.8125 1.09375q0 1.09375 0.8125 1.09375zm5.625 -2.265625q-0.640625 0.0625 -0.6875 0.65625q0 0.65625 0.796875 0.65625l0.03125 0q0.296875 0 0.53125 -0.03125q-0.0625 -1.28125 -0.671875 -1.28125zm2.671875 10.359375q0 5.28125 -5.3125 5.28125q-5.140625 0 -5.140625 -5.140625q0 -2.953125 1.5 -5.28125q0.484375 -0.78125 0.8125 -1.484375q-2.3125 -0.03125 -2.3125 -2.5625q0 -2.5625 2.359375 -2.59375q2.390625 0.03125 2.390625 2.59375q0 2.1875 -1.375 4.609375q-1.375 2.40625 -1.375 4.703125q0.015625 3.15625 3.15625 3.171875q3.328125 0 3.328125 -3.265625l0 -7.546875q-0.265625 0.03125 -0.5625 0.03125q-2.046875 0 -2.046875 -2.15625q0 -2.140625 1.90625 -2.140625q1.765625 0 2.34375 1.515625q2.0625 -1.515625 3.71875 -1.515625q4.09375 0.03125 4.109375 4.171875l0 12.234375q0 0.65625 -0.984375 0.65625q-1.0 0 -1.015625 -0.703125l0 -12.234375q-0.015625 -2.125 -2.140625 -2.125q-1.875 0 -3.21875 1.15625q-0.125 0.1875 -0.140625 0.34375l0 8.28125zm14.990356 2.96875q0 1.046875 1.125 1.046875q1.109375 0 1.109375 -1.046875q0 -1.03125 -1.109375 -1.03125q-1.125 0 -1.125 1.03125zm9.03125 2.3125q-0.890625 0 -1.8125 -0.59375q-0.921875 -0.59375 -1.515625 -2.046875q-0.59375 -1.453125 -1.53125 -2.171875q-0.921875 -0.71875 -1.984375 -0.796875q-0.203125 -0.015625 -0.375 -0.015625q-2.03125 0 -2.296875 1.421875q0.65625 -0.625 1.484375 -0.625q2.765625 0.296875 2.765625 2.109375q0.015625 0.25 0.015625 0.46875q0 2.21875 -2.921875 2.25q-3.625 -0.09375 -3.625 -3.90625q0.328125 -3.6875 4.640625 -3.6875l0.203125 0q1.796875 0.21875 3.140625 1.015625q1.359375 0.78125 2.15625 2.625q0.8125 1.84375 1.65625 1.84375q1.328125 0 1.328125 -0.890625l0 -8.96875q0 -3.078125 -5.203125 -3.078125l-0.40625 0q-5.5 0 -5.515625 2.609375q0 0.46875 -1.0 0.46875q-1.0 0 -1.0 -0.46875q0 -4.625 7.5625 -4.625q7.546875 0 7.546875 5.109375l0 8.953125q0 3.0 -3.3125 3.0zm-4.54126 -21.765625q-0.140625 -0.984375 -0.9375 -0.984375q-0.328125 0 -0.515625 0.109375q-0.1875 0.109375 -0.28125 0.265625q-0.109375 0.140625 -0.140625 0.3125q-0.03125 0.171875 -0.03125 0.28125q0 0.46875 0.3125 0.703125q0.25 0.21875 0.53125 0.21875l0.078125 0q0.46875 0 0.703125 -0.234375q0.21875 -0.25 0.28125 -0.671875zm7.03125 2.421875l0 -0.078125q0 -3.53125 -3.578125 -3.53125l-2.375 0q0.296875 0.484375 0.421875 0.828125q0.046875 0.1875 0.046875 0.390625q0 0.1875 -0.046875 0.421875q-0.125 0.453125 -0.390625 0.921875q-0.28125 0.46875 -0.578125 0.640625q-0.3125 0.171875 -0.71875 0.296875q-0.40625 0.109375 -0.8125 0.109375q-0.03125 0 -0.0625 -0.015625q-0.453125 0 -0.96875 -0.15625q-0.515625 -0.171875 -0.78125 -0.4375q-0.265625 -0.265625 -0.46875 -0.59375q-0.328125 -0.734375 -0.328125 -1.0625l0 -0.015625q0 -0.296875 0.125 -0.84375q0.125 -0.546875 0.28125 -0.71875q0.453125 -0.734375 1.21875 -1.046875q0.75 -0.3125 1.65625 -0.40625q0.890625 -0.09375 1.765625 -0.09375l1.984375 0q5.421875 0 5.703125 5.390625l-2.09375 0zm-6.34375 -9.9375q0.109375 -0.234375 0.109375 -0.40625q0 -0.09375 -0.046875 -0.1875q-0.171875 -0.328125 -0.515625 -0.328125q-0.046875 0 -0.125 0.015625q-0.4375 0.0625 -0.453125 0.4375q-0.015625 0.03125 -0.015625 0.046875q0 0.34375 0.390625 0.390625q0.234375 0.03125 0.5 0.03125l0.15625 0zm-0.640625 0.890625q-0.78125 -0.078125 -1.234375 -0.40625q-0.46875 -0.34375 -0.46875 -0.9375l0 -0.125q0.0625 -0.671875 0.71875 -1.0625q0.53125 -0.3125 1.234375 -0.3125q0.15625 0 0.3125 0.015625q0.921875 0.078125 1.25 0.609375q0.296875 0.484375 0.296875 1.171875l0 0.109375q-0.03125 0.78125 -1.328125 1.859375q2.21875 -0.140625 3.40625 -1.0q1.171875 -0.875 1.78125 -2.328125l1.796875 0.75q-0.90625 1.578125 -1.75 2.234375q-0.84375 0.640625 -2.203125 1.0625q-1.359375 0.40625 -3.453125 0.40625l-3.203125 0l0 -0.90625q2.03125 -0.359375 2.84375 -1.140625zm15.96875 14.890625q0 -1.046875 -1.03125 -1.046875q-1.03125 0 -1.03125 1.046875q0 1.046875 1.03125 1.046875q1.03125 0 1.03125 -1.046875zm4.234375 12.984375q0 0.515625 -0.90625 0.515625q-0.9375 0 -0.9375 -0.515625l0 -11.875q0 -2.328125 -1.625 -2.515625q0.625 0.609375 0.625 1.40625q0 2.59375 -2.109375 2.59375q-0.234375 0.03125 -0.46875 0.03125q-2.21875 0 -2.25 -2.78125q0.09375 -3.40625 3.453125 -3.40625q4.21875 0 4.21875 4.71875l0 11.828125z" fill-rule="nonzero"/><path fill="#000000" d="m385.34128 393.02673q-1.015625 0 -1.015625 1.03125q0 1.03125 1.015625 1.03125q1.0 0 1.0 -1.03125q0 -1.03125 -1.0 -1.03125zm0.546875 12.515625q-1.484375 0 -2.75 -1.078125q-1.25 -1.09375 -1.25 -2.515625q0 -3.109375 4.390625 -4.375l3.171875 -0.921875q5.5625 -1.5 5.5625 -3.359375q-0.078125 -1.28125 -1.4375 -2.0625q-1.34375 -0.796875 -4.5625 -0.796875q-4.421875 0 -5.046875 1.828125q0.59375 -0.625 1.359375 -0.625q2.515625 0 2.515625 2.109375q0.03125 0.234375 0.03125 0.453125q0 2.25 -2.671875 2.265625q-3.3125 -0.078125 -3.3125 -3.453125q0 -4.53125 7.125 -4.53125q2.109375 0.03125 3.1875 0.203125q1.265625 0.234375 2.328125 0.78125q1.0625 0.5625 1.78125 1.484375q0.6875 0.9375 0.6875 2.390625q0 3.234375 -6.84375 5.15625l-3.578125 1.015625q-2.71875 0.796875 -2.71875 2.4375q0.015625 0.5625 0.625 1.09375q0.609375 0.515625 1.375 0.515625q0.921875 0 3.40625 -0.90625q2.5 -0.90625 3.734375 -0.90625q1.484375 0 2.75 1.25l0.5625 0.65625q0.421875 0.640625 0.546875 1.265625l0 0.140625q0 0.484375 -0.75 0.484375q-0.859375 0 -0.90625 -0.390625q-0.109375 -0.296875 -0.765625 -0.859375q-0.65625 -0.5625 -1.40625 -0.5625q-0.921875 0 -3.46875 0.890625q-2.546875 0.890625 -3.671875 0.921875zm17.11316 -13.875q0 0.40625 0.265625 0.671875q0.28125 0.265625 0.75 0.265625q0.453125 0 0.703125 -0.25q0.25 -0.25 0.25 -0.671875q0 -0.421875 -0.28125 -0.671875q-0.28125 -0.265625 -0.703125 -0.265625q-0.484375 0 -0.734375 0.25q-0.25 0.25 -0.25 0.671875zm1.609375 3.171875q-1.59375 -0.46875 -2.421875 -1.46875q-0.78125 -0.921875 -0.78125 -1.8125l0 -0.140625q0.078125 -0.96875 0.703125 -1.546875q0.625 -0.578125 1.375 -0.640625q0.171875 -0.015625 0.3125 -0.015625q0.578125 0 1.078125 0.15625q0.640625 0.21875 0.984375 0.65625q0.359375 0.421875 0.5 0.859375q0.125 0.390625 0.125 0.796875l0 0.09375q-0.015625 0.4375 -0.1875 0.875q-0.171875 0.4375 -0.625 0.84375q0.53125 0.28125 1.5 0.28125q0.171875 0 0.359375 -0.015625q1.484375 -0.0625 2.59375 -0.875q1.515625 -1.09375 1.84375 -3.53125l1.96875 0q-0.5625 2.921875 -2.1875 4.4375q-1.625 1.515625 -4.3125 1.515625q-1.21875 0 -2.828125 -0.46875zm-1.609375 6.46875q0 0.40625 0.265625 0.671875q0.28125 0.265625 0.75 0.265625q0.453125 0 0.703125 -0.25q0.25 -0.25 0.25 -0.671875q0 -0.421875 -0.28125 -0.6875q-0.28125 -0.265625 -0.703125 -0.265625q-0.484375 0 -0.734375 0.265625q-0.25 0.25 -0.25 0.671875zm1.609375 3.171875q-1.59375 -0.46875 -2.421875 -1.46875q-0.78125 -0.921875 -0.78125 -1.8125l0 -0.140625q0.078125 -0.96875 0.703125 -1.546875q0.625 -0.578125 1.375 -0.640625q0.171875 -0.015625 0.3125 -0.015625q0.578125 0 1.078125 0.15625q0.640625 0.21875 0.984375 0.65625q0.359375 0.421875 0.5 0.859375q0.125 0.390625 0.125 0.796875l0 0.09375q-0.015625 0.4375 -0.1875 0.875q-0.171875 0.4375 -0.625 0.84375q0.53125 0.28125 1.5 0.28125q0.171875 0 0.359375 -0.015625q1.484375 -0.0625 2.59375 -0.890625q1.515625 -1.078125 1.84375 -3.515625l1.96875 0q-0.5625 2.921875 -2.1875 4.4375q-1.625 1.515625 -4.3125 1.515625q-1.21875 0 -2.828125 -0.46875zm15.92981 -12.3125q0.8125 0 0.8125 -1.09375q0 -1.09375 -0.8125 -1.09375q-0.828125 0 -0.828125 1.09375q0 1.09375 0.828125 1.09375zm5.40625 -2.265625q-0.71875 0 -0.71875 0.65625q0 0.65625 0.828125 0.65625l0.03125 0q0.3125 0 0.5625 -0.03125q-0.09375 -1.28125 -0.703125 -1.28125zm16.5 3.578125l0.015625 0l-0.015625 7.609375q-0.171875 4.453125 -3.453125 4.453125q-1.78125 0 -2.6875 -0.84375q-0.90625 -0.84375 -1.375 -0.984375q-0.921875 1.828125 -2.75 1.828125l0 -1.75l0.015625 0q0.375 0 0.875 -0.703125q0.484375 -0.71875 0.484375 -2.1875l0 -8.1875q0 -2.1875 -2.21875 -2.21875q-1.140625 0.21875 -1.90625 0.78125q-0.75 0.546875 -0.78125 0.703125l0 8.28125q-0.15625 5.28125 -5.09375 5.28125q-5.21875 0 -5.21875 -5.140625q0 -2.953125 1.515625 -5.28125q0.484375 -0.78125 0.828125 -1.484375q-2.34375 -0.03125 -2.34375 -2.5625q0 -2.5625 2.390625 -2.59375q2.390625 0.03125 2.390625 2.59375q0 2.1875 -1.390625 4.609375q-1.359375 2.375 -1.359375 4.703125l0 0.109375q-0.015625 0.15625 -0.015625 0.296875q0 2.796875 3.203125 2.796875q3.09375 0 3.09375 -3.328125l0 -7.515625q-0.28125 0.03125 -0.5625 0.03125q-2.078125 0 -2.078125 -2.15625q0 -2.140625 1.9375 -2.140625q1.796875 0 2.359375 1.546875q1.859375 -1.484375 3.125 -1.546875q3.921875 0 4.125 4.3125l0 9.265625q0.5625 0.21875 1.375 0.921875q0.8125 0.703125 2.0625 0.703125q1.46875 0 1.46875 -2.59375l0 -6.640625l-0.03125 0l0.03125 -5.28125q0 -0.6875 0.984375 -0.6875q1.0 0 1.0 0.6875l0 4.3125zm-7.842499 -9.703125q-0.140625 -0.984375 -0.9375 -0.984375q-0.328125 0 -0.515625 0.109375q-0.1875 0.109375 -0.28125 0.265625q-0.109375 0.140625 -0.140625 0.3125q-0.03125 0.171875 -0.03125 0.28125q0 0.46875 0.3125 0.703125q0.25 0.21875 0.53125 0.21875l0.078125 0q0.46875 0 0.703125 -0.234375q0.21875 -0.25 0.28125 -0.671875zm7.03125 2.421875l0 -0.078125q0 -3.53125 -3.578125 -3.53125l-2.375 0q0.296875 0.484375 0.421875 0.828125q0.046875 0.1875 0.046875 0.390625q0 0.1875 -0.046875 0.421875q-0.125 0.453125 -0.390625 0.921875q-0.28125 0.46875 -0.578125 0.640625q-0.3125 0.171875 -0.71875 0.296875q-0.40625 0.109375 -0.8125 0.109375q-0.03125 0 -0.0625 -0.015625q-0.453125 0 -0.96875 -0.15625q-0.515625 -0.171875 -0.78125 -0.4375q-0.265625 -0.265625 -0.46875 -0.59375q-0.328125 -0.734375 -0.328125 -1.0625l0 -0.015625q0 -0.296875 0.125 -0.84375q0.125 -0.546875 0.28125 -0.71875q0.453125 -0.734375 1.21875 -1.046875q0.75 -0.3125 1.65625 -0.40625q0.890625 -0.09375 1.765625 -0.09375l1.984375 0q5.421875 0 5.703125 5.390625l-2.09375 0zm6.21875 16.453125l0 0.03125q0 0.703125 0.609375 0.703125q0.609375 0 0.625 -0.734375q0 -0.734375 -0.609375 -0.734375q-0.625 0 -0.625 0.734375zm4.75 1.578125q-1.0625 1.3125 -3.421875 1.3125q-2.625 0 -2.703125 -2.890625q0.03125 -1.984375 2.0625 -1.984375l0.03125 0q1.9375 0.015625 1.9375 1.671875l0 0.1875q0 0.6875 -0.40625 1.046875q1.234375 0 1.421875 -2.421875l0 -12.25q0 -0.421875 1.015625 -0.421875q1.0 0 1.0 0.421875l-0.015625 12.265625l0 0.015625q0 2.34375 4.0625 2.34375q0.21875 0.015625 0.4375 0.015625q3.359375 0 3.640625 -2.40625l0 -12.234375q0 -0.421875 1.015625 -0.421875q1.015625 0 1.015625 0.40625l0 12.28125q-0.28125 4.375 -6.125 4.375q-3.40625 0 -4.96875 -1.3125z" fill-rule="nonzero"/><path fill="#000000" d="m382.46628 442.54236l0 -3.0625l3.078125 0l0 3.0625l-3.078125 0z" fill-rule="nonzero"/><path fill="#000000" d="m382.46628 479.54236l0 -3.0625l3.078125 0l0 3.0625l-3.078125 0z" fill-rule="nonzero"/><path fill="#000000" d="m382.46628 516.54236l0 -3.0625l3.078125 0l0 3.0625l-3.078125 0z" fill-rule="nonzero"/></g></svg>