<svg version="1.1" viewBox="0.0 0.0 960.0 720.0" fill="none" stroke="none" stroke-linecap="square" stroke-miterlimit="10" xmlns:xlink="http://www.w3.org/1999/xlink" xmlns="http://www.w3.org/2000/svg"><clipPath id="p.0"><path d="m0 0l960.0 0l0 720.0l-960.0 0l0 -720.0z" clip-rule="nonzero"/></clipPath><g clip-path="url(#p.0)"><path fill="#000000" fill-opacity="0.0" d="m0 0l960.0 0l0 720.0l-960.0 0z" fill-rule="evenodd"/><path fill="#cfe2f3" d="m165.57217 433.3281l0 0c0 -44.417633 36.64215 -80.4252 81.84253 -80.4252l0 0c21.705994 0 42.52295 8.473328 57.8714 23.556c15.34845 15.082642 23.97113 35.539093 23.97113 56.8692l0 0c0 44.417603 -36.64215 80.4252 -81.84253 80.4252l0 0c-45.20038 0 -81.84253 -36.0076 -81.84253 -80.4252z" fill-rule="evenodd"/><path stroke="#000000" stroke-width="1.0" stroke-linejoin="round" stroke-linecap="butt" d="m165.57217 433.3281l0 0c0 -44.417633 36.64215 -80.4252 81.84253 -80.4252l0 0c21.705994 0 42.52295 8.473328 57.8714 23.556c15.34845 15.082642 23.97113 35.539093 23.97113 56.8692l0 0c0 44.417603 -36.64215 80.4252 -81.84253 80.4252l0 0c-45.20038 0 -81.84253 -36.0076 -81.84253 -80.4252z" fill-rule="evenodd"/><path fill="#0000ff" d="m235.65494 440.05557q0 0.8125 0.875 0.8125q0.875 0 0.875 -0.8125q0 -0.796875 -0.875 -0.796875q-0.875 0 -0.875 0.796875zm7.0625 1.8125q-0.6875 0 -1.40625 -0.453125q-0.71875 -0.46875 -1.1875 -1.609375q-0.46875 -1.140625 -1.203125 -1.703125q-0.71875 -0.578125 -1.546875 -0.625q-0.15625 -0.015625 -0.296875 -0.015625q-1.59375 0 -1.796875 1.109375q0.5 -0.484375 1.15625 -0.484375q2.15625 0.234375 2.15625 1.640625q0.03125 0.203125 0.03125 0.375q0 1.734375 -2.296875 1.765625q-2.84375 -0.078125 -2.84375 -3.0625q0.265625 -2.875 3.640625 -2.875l0.15625 0q1.40625 0.15625 2.453125 0.78125q1.0625 0.625 1.6875 2.0625q0.640625 1.4375 1.296875 1.4375q1.046875 0 1.046875 -0.6875l0 -7.03125q0 -2.40625 -4.078125 -2.40625l-0.3125 0q-4.296875 0 -4.3125 2.046875q0 0.359375 -0.78125 0.359375q-0.796875 0 -0.796875 -0.359375q0 -3.625 5.921875 -3.625q5.921875 0 5.921875 4.0l0 7.015625q0 2.34375 -2.609375 2.34375zm-3.4882812 -17.375q0 -0.40625 -0.234375 -0.546875q-0.234375 -0.15625 -0.5 -0.15625q-0.328125 0 -0.53125 0.21875q-0.203125 0.21875 -0.203125 0.4375q0 0.21875 0.203125 0.46875q0.203125 0.234375 0.546875 0.234375q0.265625 0 0.5 -0.203125q0.21875 -0.203125 0.21875 -0.453125zm7.078125 -1.765625q-0.28125 2.171875 -1.421875 3.078125q-1.140625 0.890625 -3.390625 0.890625l-0.015625 0q-0.234375 0 -0.71875 0.015625q-0.15625 0.015625 -0.34375 0.015625q-0.328125 0 -0.6875 -0.03125q-0.5625 -0.015625 -1.171875 -0.140625q-0.609375 -0.140625 -1.09375 -0.390625q-0.484375 -0.265625 -0.8125 -0.765625q-0.3125 -0.4375 -0.3125 -1.015625l0 -0.125q0.03125 -0.484375 0.234375 -0.796875q0.1875 -0.3125 0.5 -0.53125q0.3125 -0.234375 0.640625 -0.328125q0.328125 -0.09375 0.578125 -0.09375q0.0625 0 0.328125 0.015625q0.265625 0 0.59375 0.09375q0.3125 0.078125 0.65625 0.3125q0.328125 0.21875 0.46875 0.453125q0.125 0.21875 0.203125 0.40625q0.078125 0.171875 0.109375 0.421875l0 0.109375q0 0.203125 -0.046875 0.390625q-0.078125 0.25 -0.28125 0.53125q0 0.03125 0.609375 0.03125q0.359375 0 0.9375 -0.015625q0.421875 0 0.84375 -0.0625q0.421875 -0.078125 0.796875 -0.28125q0.375 -0.203125 0.6875 -0.734375q0.296875 -0.53125 0.53125 -1.421875l1.578125 -0.03125zm6.625 17.28125q0 -0.78125 -0.828125 -0.78125q-0.84375 0 -0.84375 0.78125q0 0.796875 0.84375 0.796875q0.828125 0 0.828125 -0.796875zm-3.671875 -6.75q0 -4.75 5.9375 -4.75q5.90625 0 5.90625 4.75l0 8.21875q0 0.390625 -0.796875 0.390625q-0.796875 0 -0.796875 -0.390625l0 -8.21875q0 -3.296875 -4.3125 -3.296875q-4.328125 0 -4.328125 3.296875l0 5.53125l0.109375 -0.140625q0.484375 -0.5 1.359375 -0.5q1.828125 0 1.828125 1.625q0.015625 0.1875 0.015625 0.375q0 1.6875 -2.078125 1.71875q-2.84375 -0.078125 -2.84375 -3.453125l0 -5.15625z" fill-rule="nonzero"/><path fill="#cfe2f3" d="m489.0656 433.3281l0 0c0 -44.417633 36.64215 -80.4252 81.84253 -80.4252l0 0c21.705994 0 42.52295 8.473328 57.8714 23.556c15.34845 15.082642 23.97113 35.539093 23.97113 56.8692l0 0c0 44.417603 -36.64215 80.4252 -81.84253 80.4252l0 0c-45.20038 0 -81.84253 -36.0076 -81.84253 -80.4252z" fill-rule="evenodd"/><path stroke="#000000" stroke-width="1.0" stroke-linejoin="round" stroke-linecap="butt" d="m489.0656 433.3281l0 0c0 -44.417633 36.64215 -80.4252 81.84253 -80.4252l0 0c21.705994 0 42.52295 8.473328 57.8714 23.556c15.34845 15.082642 23.97113 35.539093 23.97113 56.8692l0 0c0 44.417603 -36.64215 80.4252 -81.84253 80.4252l0 0c-45.20038 0 -81.84253 -36.0076 -81.84253 -80.4252z" fill-rule="evenodd"/><path fill="#0000ff" d="m535.28705 431.3837q0.75 0 0.75 -0.859375q0 -0.875 -0.75 -0.875q-0.75 0 -0.75 0.875q0 0.859375 0.75 0.859375zm-0.40625 6.453125q0.09375 2.5 2.40625 2.5q2.3125 0 2.40625 -2.609375l0 -5.265625q0 -3.953125 3.609375 -3.953125q4.046875 0 4.046875 4.140625l0 8.8125q0 0.40625 -0.78125 0.40625q-0.796875 0 -0.796875 -0.40625l-0.046875 -8.828125q-0.0625 -2.59375 -2.265625 -2.59375q-2.171875 0 -2.171875 2.609375l0 5.078125q0 4.140625 -4.0 4.140625q-4.0 0 -4.0 -4.03125q0 -2.328125 1.359375 -4.140625q0.46875 -0.609375 0.796875 -1.15625q-2.15625 -0.03125 -2.15625 -2.015625q0 -2.015625 2.171875 -2.015625q2.1875 0 2.1875 2.015625q0 1.703125 -1.34375 3.609375q-1.328125 1.890625 -1.421875 3.703125zm9.660156 6.625q0 -0.203125 -0.15625 -0.34375q-0.171875 -0.140625 -0.359375 -0.140625q-0.21875 0 -0.40625 0.140625q-0.15625 0.140625 -0.15625 0.328125l0 0.03125q0 0.15625 0.171875 0.3125q0.171875 0.171875 0.390625 0.171875q0.1875 0 0.359375 -0.171875q0.15625 -0.171875 0.15625 -0.328125zm1.515625 1.015625l-0.015625 0q-0.15625 0.40625 -0.25 0.5625q-0.109375 0.171875 -0.265625 0.359375q-0.171875 0.203125 -0.390625 0.40625q-0.21875 0.21875 -0.90625 0.671875l-1.359375 -0.671875q0.546875 -0.234375 0.921875 -0.578125q0.359375 -0.34375 0.484375 -0.625q-0.421875 0.09375 -0.640625 0.109375l-0.03125 0q-0.21875 0 -0.578125 -0.140625q-0.5625 -0.25 -0.6875 -0.5625q-0.125 -0.296875 -0.125 -0.75q0.140625 -0.53125 0.3125 -0.71875q0.15625 -0.171875 0.421875 -0.328125q0.25 -0.140625 0.46875 -0.203125q0.21875 -0.046875 0.8125 -0.0625l0.046875 0q0.15625 0 0.53125 0.125q0.375 0.140625 0.6875 0.375q0.3125 0.25 0.5 0.734375q0.109375 0.28125 0.109375 0.6875q0 0.265625 -0.046875 0.609375zm7.15625 -5.421875q0 0.8125 0.875 0.8125q0.875 0 0.875 -0.8125q0 -0.796875 -0.875 -0.796875q-0.875 0 -0.875 0.796875zm7.0625 1.8125q-0.6875 0 -1.40625 -0.453125q-0.71875 -0.46875 -1.1875 -1.609375q-0.46875 -1.140625 -1.203125 -1.703125q-0.71875 -0.578125 -1.546875 -0.625q-0.15625 -0.015625 -0.296875 -0.015625q-1.59375 0 -1.796875 1.109375q0.5 -0.484375 1.15625 -0.484375q2.15625 0.234375 2.15625 1.640625q0.03125 0.203125 0.03125 0.375q0 1.734375 -2.296875 1.765625q-2.84375 -0.078125 -2.84375 -3.0625q0.265625 -2.875 3.640625 -2.875l0.15625 0q1.40625 0.15625 2.453125 0.78125q1.0625 0.625 1.6875 2.0625q0.640625 1.4375 1.296875 1.4375q1.046875 0 1.046875 -0.6875l0 -7.03125q0 -2.40625 -4.078125 -2.40625l-0.3125 0q-4.296875 0 -4.3125 2.046875q0 0.359375 -0.78125 0.359375q-0.796875 0 -0.796875 -0.359375q0 -3.625 5.921875 -3.625q5.921875 0 5.921875 4.0l0 7.015625q0 2.34375 -2.609375 2.34375zm7.5585938 -10.859375q0 0.3125 0.203125 0.53125q0.21875 0.203125 0.578125 0.203125q0.359375 0 0.546875 -0.203125q0.203125 -0.203125 0.203125 -0.53125q0 -0.328125 -0.21875 -0.53125q-0.21875 -0.203125 -0.5625 -0.203125q-0.375 0 -0.5625 0.203125q-0.1875 0.203125 -0.1875 0.53125zm1.25 2.484375q-1.25 -0.375 -1.90625 -1.15625q-0.609375 -0.71875 -0.609375 -1.421875l0 -0.109375q0.0625 -0.75 0.546875 -1.203125q0.5 -0.46875 1.09375 -0.515625q0.125 0 0.234375 0q0.453125 0 0.84375 0.125q0.515625 0.15625 0.78125 0.5q0.28125 0.34375 0.390625 0.6875q0.09375 0.296875 0.09375 0.609375l0 0.078125q-0.015625 0.34375 -0.15625 0.6875q-0.125 0.34375 -0.484375 0.65625q0.421875 0.21875 1.171875 0.21875q0.140625 0 0.28125 0q1.171875 -0.046875 2.046875 -0.703125q1.171875 -0.84375 1.4375 -2.75l1.53125 0q-0.4375 2.28125 -1.703125 3.46875q-1.265625 1.1875 -3.375 1.1875q-0.953125 0 -2.21875 -0.359375zm-1.25 5.0625q0 0.3125 0.203125 0.53125q0.21875 0.203125 0.578125 0.203125q0.359375 0 0.546875 -0.203125q0.203125 -0.203125 0.203125 -0.53125q0 -0.328125 -0.21875 -0.53125q-0.21875 -0.203125 -0.5625 -0.203125q-0.375 0 -0.5625 0.203125q-0.1875 0.203125 -0.1875 0.53125zm1.25 2.484375q-1.25 -0.375 -1.90625 -1.15625q-0.609375 -0.71875 -0.609375 -1.421875l0 -0.109375q0.0625 -0.75 0.546875 -1.203125q0.5 -0.46875 1.09375 -0.515625q0.125 0 0.234375 0q0.453125 0 0.84375 0.125q0.515625 0.15625 0.78125 0.5q0.28125 0.34375 0.390625 0.6875q0.09375 0.296875 0.09375 0.609375l0 0.078125q-0.015625 0.34375 -0.15625 0.6875q-0.125 0.34375 -0.484375 0.65625q0.421875 0.21875 1.171875 0.21875q0.140625 0 0.28125 0q1.171875 -0.046875 2.046875 -0.703125q1.171875 -0.84375 1.4375 -2.75l1.53125 0q-0.4375 2.28125 -1.703125 3.46875q-1.265625 1.1875 -3.375 1.1875q-0.953125 0 -2.21875 -0.359375zm12.707031 -0.28125q0.75 0 0.75 -0.703125q0 -0.703125 -0.75 -0.703125q-0.75 0 -0.75 0.703125q0 0.703125 0.75 0.703125zm-0.0625 -11.125q-0.703125 0 -0.703125 0.5q0 0.53125 0.484375 0.59375q0.078125 0.015625 0.171875 0.015625q0.390625 0 0.859375 -0.296875q-0.09375 -0.75 -0.8125 -0.8125zm2.390625 10.234375q-0.078125 1.84375 -2.25 2.0q-1.9375 -0.03125 -2.046875 -1.890625q0.1875 -1.515625 1.515625 -1.828125q0.25 -0.03125 0.453125 -0.03125q0.46875 0 0.75 0.1875l0 -6.3125q-0.375 0.046875 -0.734375 0.09375q-1.984375 -0.171875 -1.984375 -1.859375q0 -1.65625 1.828125 -1.71875q1.640625 0 2.46875 1.265625q1.921875 -1.203125 3.84375 -1.265625q4.21875 0.109375 4.546875 3.203125l0 9.75q0 0.40625 -0.78125 0.40625q-0.796875 0 -0.796875 -0.5l0 -9.625q-0.015625 -1.578125 -2.96875 -1.765625q-2.0 0.25 -2.8125 0.71875q-0.796875 0.46875 -1.03125 0.71875l0 8.453125zm3.9804688 -13.703125q0.046875 -0.34375 0.25 -0.453125q0.1875 -0.125 0.734375 -0.359375q0.53125 -0.296875 0.90625 -0.65625q0.234375 -0.234375 0.234375 -0.53125q0 -0.140625 -0.046875 -0.296875q-0.1875 -0.46875 -1.046875 -0.796875q-0.84375 -0.3125 -2.375 -0.3125l-0.25 0q-1.546875 0 -2.28125 0.234375q-0.796875 0.28125 -0.984375 0.78125q-0.078125 0.1875 -0.078125 0.359375q0 0.28125 0.203125 0.515625q0.3125 0.390625 0.765625 0.640625q0.71875 0.296875 0.90625 0.453125q0.171875 0.15625 0.203125 0.375q-0.0625 0.609375 -0.828125 0.609375q-0.125 0 -0.28125 -0.03125q-0.640625 -0.1875 -1.078125 -0.453125q-0.4375 -0.28125 -0.796875 -0.609375q-0.375 -0.34375 -0.515625 -0.6875q-0.140625 -0.34375 -0.203125 -0.875q0 -0.609375 0.5625 -1.265625q0.5625 -0.65625 1.65625 -0.96875q1.078125 -0.3125 2.890625 -0.390625q1.765625 0.078125 2.9375 0.390625q1.15625 0.296875 1.75 1.015625q0.59375 0.703125 0.609375 1.234375q0 0.578125 -0.25 0.96875q-0.25 0.375 -0.578125 0.65625q-0.34375 0.28125 -0.75 0.5625q-0.421875 0.28125 -1.28125 0.453125q-0.984375 0 -0.984375 -0.5625zm12.015625 13.84375q0 -0.78125 -0.828125 -0.78125q-0.84375 0 -0.84375 0.78125q0 0.796875 0.84375 0.796875q0.828125 0 0.828125 -0.796875zm-3.671875 -6.75q0 -4.75 5.9375 -4.75q5.90625 0 5.90625 4.75l0 8.21875q0 0.390625 -0.796875 0.390625q-0.796875 0 -0.796875 -0.390625l0 -8.21875q0 -3.296875 -4.3125 -3.296875q-4.328125 0 -4.328125 3.296875l0 5.53125l0.109375 -0.140625q0.484375 -0.5 1.359375 -0.5q1.828125 0 1.828125 1.625q0.015625 0.1875 0.015625 0.375q0 1.6875 -2.078125 1.71875q-2.84375 -0.078125 -2.84375 -3.453125l0 -5.15625z" fill-rule="nonzero"/><path fill="#cfe2f3" d="m321.0656 177.32808l0 0c0 -44.417603 36.64215 -80.42519 81.84253 -80.42519l0 0c21.705994 0 42.52295 8.473343 57.8714 23.556c15.34845 15.082649 23.97113 35.539116 23.97113 56.869194l0 0c0 44.417618 -36.64215 80.42522 -81.84253 80.42522l0 0c-45.20038 0 -81.84253 -36.0076 -81.84253 -80.42522z" fill-rule="evenodd"/><path stroke="#000000" stroke-width="1.0" stroke-linejoin="round" stroke-linecap="butt" d="m321.0656 177.32808l0 0c0 -44.417603 36.64215 -80.42519 81.84253 -80.42519l0 0c21.705994 0 42.52295 8.473343 57.8714 23.556c15.34845 15.082649 23.97113 35.539116 23.97113 56.869194l0 0c0 44.417618 -36.64215 80.42522 -81.84253 80.42522l0 0c-45.20038 0 -81.84253 -36.0076 -81.84253 -80.42522z" fill-rule="evenodd"/><path fill="#0000ff" d="m365.39642 184.00871q0 -0.78125 -0.828125 -0.78125q-0.828125 0 -0.828125 0.78125q0 0.796875 0.828125 0.796875q0.828125 0 0.828125 -0.796875zm-3.671875 -2.59375q0 -1.859375 1.953125 -2.609375q-1.953125 -0.734375 -1.953125 -2.703125q0 -3.59375 5.90625 -3.59375q5.90625 0 5.9375 4.140625l0 8.734375q0 0.484375 -0.78125 0.484375q-0.796875 0 -0.796875 -0.484375l0 -8.765625q0 -2.65625 -4.3125 -2.65625q-4.34375 0 -4.34375 2.140625q0 1.234375 0.734375 1.640625q0.734375 0.40625 1.484375 0.421875q0.921875 0 0.921875 0.640625q0 0.65625 -0.46875 0.65625q-0.46875 0 -1.9375 0.375q-0.734375 0.46875 -0.734375 1.578125l0 1.375l0.109375 -0.140625q0.484375 -0.5 1.359375 -0.5q1.828125 0 1.828125 1.625q0.015625 0.1875 0.015625 0.375q0 1.6875 -2.078125 1.71875q-2.84375 -0.078125 -2.84375 -3.453125l0 -1.0zm5.6835938 -12.59375q-0.109375 -0.765625 -0.734375 -0.765625q-0.265625 0 -0.40625 0.09375q-0.140625 0.078125 -0.21875 0.203125q-0.078125 0.109375 -0.09375 0.25q-0.03125 0.125 -0.03125 0.21875q0 0.359375 0.234375 0.546875q0.203125 0.171875 0.421875 0.171875l0.0625 0q0.359375 0 0.546875 -0.1875q0.171875 -0.203125 0.21875 -0.53125zm5.515625 1.90625l0 -0.078125q0 -2.75 -2.8125 -2.75l-1.859375 0q0.234375 0.375 0.328125 0.640625q0.03125 0.140625 0.03125 0.3125q0 0.15625 -0.03125 0.328125q-0.09375 0.359375 -0.3125 0.734375q-0.21875 0.359375 -0.453125 0.5q-0.234375 0.125 -0.5625 0.21875q-0.3125 0.09375 -0.625 0.09375q-0.03125 0 -0.046875 -0.015625q-0.359375 0 -0.75 -0.125q-0.40625 -0.125 -0.609375 -0.328125q-0.21875 -0.21875 -0.375 -0.484375q-0.265625 -0.578125 -0.265625 -0.828125l0 -0.015625q0 -0.234375 0.09375 -0.65625q0.09375 -0.4375 0.234375 -0.5625q0.34375 -0.578125 0.9375 -0.8125q0.59375 -0.25 1.296875 -0.3125q0.703125 -0.078125 1.390625 -0.078125l1.546875 0q4.25 0 4.46875 4.21875l-1.625 0zm7.609375 11.015625q0 -0.328125 -0.234375 -0.546875q-0.21875 -0.234375 -0.578125 -0.234375q-0.390625 0 -0.640625 0.234375q-0.234375 0.234375 -0.234375 0.5625q0 0.375 0.234375 0.59375q0.25 0.203125 0.640625 0.203125q0.359375 0 0.59375 -0.203125q0.25 -0.21875 0.25 -0.59375l-0.03125 -0.015625zm0.84375 2.484375q0.75 0.15625 1.4375 0.15625q0.765625 0 1.625 -0.140625q0.859375 -0.140625 1.546875 -0.46875q0.6875 -0.34375 1.109375 -0.96875q0.4375 -0.625 0.4375 -1.625l0 -3.6875q0 -0.9375 -0.40625 -1.59375q-0.40625 -0.671875 -1.09375 -1.078125q-0.671875 -0.421875 -1.5 -0.59375q-0.8125 -0.1875 -1.625 -0.1875q-0.5 0 -1.21875 0.09375q-0.703125 0.09375 -1.34375 0.359375q-0.625 0.25 -1.0625 0.6875q-0.4375 0.4375 -0.515625 0.765625q-0.0625 0.328125 -0.78125 0.34375l-0.03125 0q-0.703125 0 -0.703125 -0.515625q0 -0.53125 0.5625 -1.265625q0.5625 -0.734375 1.390625 -1.171875q0.84375 -0.4375 1.84375 -0.625q1.015625 -0.203125 1.90625 -0.203125q1.15625 0 2.265625 0.265625q1.109375 0.265625 1.953125 0.859375q0.859375 0.59375 1.390625 1.53125q0.53125 0.921875 0.53125 2.234375l0 3.90625q0 1.296875 -0.5625 2.171875q-0.546875 0.875 -1.421875 1.40625q-0.859375 0.53125 -1.984375 0.765625q-1.109375 0.21875 -2.21875 0.21875q-1.0625 0 -2.125 -0.34375q-1.046875 -0.34375 -1.734375 -0.765625q-0.765625 -0.421875 -1.28125 -1.125q-0.515625 -0.71875 -0.515625 -1.71875q0 -0.953125 0.5625 -1.578125q0.5625 -0.640625 1.53125 -0.78125q0.75 0.015625 1.21875 0.25q0.484375 0.21875 0.78125 0.5625q0.296875 0.34375 0.390625 0.75q0.109375 0.390625 0.109375 0.75q-0.015625 0.703125 -0.390625 1.265625q-0.359375 0.546875 -1.25 0.671875q0.421875 0.265625 1.171875 0.421875zm15.386719 -0.5625q0 -0.609375 -0.5625 -0.609375q-0.5625 0 -0.5625 0.609375q0 0.609375 0.5625 0.609375q0.5625 0 0.5625 -0.609375zm-2.296875 -1.390625q0 1.21875 0.203125 1.265625q0.125 -1.359375 1.59375 -1.359375q1.46875 0 1.484375 1.40625q-0.0625 2.28125 -2.0 2.28125q-2.71875 0 -2.71875 -3.59375l0 -6.546875q0 -1.921875 0.953125 -2.5625q0.953125 -0.65625 1.828125 -0.65625q1.140625 0 1.921875 0.453125l0 1.34375q-1.0625 -0.265625 -1.921875 -0.265625q-0.78125 0 -1.0625 0.46875q-0.28125 0.453125 -0.28125 0.9375l0 6.828125zm9.4453125 0.125q0.78125 0 0.78125 -0.796875q0 -0.78125 -0.78125 -0.78125q-0.796875 0 -0.796875 0.78125q0 0.796875 0.796875 0.796875zm0.421875 -9.890625q1.21875 0 2.46875 0.53125q1.265625 0.515625 1.984375 0.515625q1.390625 0 2.03125 -0.375q0.640625 -0.375 0.640625 -0.53125q0 -0.140625 0.78125 -0.140625q0.765625 0 0.765625 0.4375q0 0.46875 -1.15625 1.296875q-1.140625 0.8125 -3.09375 0.8125q-1.40625 -0.109375 -2.5625 -0.5625q-1.15625 -0.46875 -1.890625 -0.46875q-0.59375 0 -1.078125 0.40625q-0.46875 0.390625 -0.484375 1.15625q0 1.34375 2.234375 1.671875l3.59375 0.703125q4.46875 0.734375 4.46875 3.96875q0 1.328125 -0.546875 2.046875q-0.5625 0.71875 -1.390625 1.140625q-0.828125 0.421875 -1.828125 0.578125q-0.84375 0.140625 -2.5 0.171875q-5.578125 0 -5.578125 -3.453125q0 -2.578125 2.59375 -2.640625q2.09375 0.015625 2.09375 1.71875q0 0.171875 -0.015625 0.359375q0 1.59375 -1.96875 1.59375q-0.59375 0 -1.0625 -0.46875q0.484375 1.390625 3.9375 1.390625q2.53125 0 3.578125 -0.59375q1.0625 -0.609375 1.125 -1.8125q0 -1.640625 -3.234375 -2.5625l-3.5625 -0.640625q-3.484375 -0.5625 -3.484375 -3.171875q0 -1.421875 0.984375 -2.25q0.984375 -0.828125 2.15625 -0.828125zm1.4375 -4.109375q0 -0.375 0.3125 -0.640625q0.3125 -0.265625 0.75 -0.265625q0.4375 0 0.765625 0.265625q0.3125 0.265625 0.3125 0.640625q0 0.375 -0.3125 0.65625q-0.328125 0.265625 -0.765625 0.265625q-0.4375 0 -0.75 -0.265625q-0.3125 -0.28125 -0.3125 -0.65625zm6.921875 2.328125l-3.53125 0q-0.953125 0 -0.953125 -0.59375q0.03125 -0.328125 0.234375 -0.453125q0.1875 -0.125 0.71875 -0.34375q0.546875 -0.3125 0.890625 -0.671875q0.21875 -0.234375 0.21875 -0.5q0 -0.140625 -0.046875 -0.296875q-0.1875 -0.421875 -1.03125 -0.765625q-0.78125 -0.3125 -2.1875 -0.3125l-0.4375 0q-1.453125 0 -2.140625 0.25q-0.75 0.28125 -0.9375 0.734375q-0.078125 0.171875 -0.078125 0.34375q0 0.265625 0.203125 0.5q0.296875 0.390625 0.734375 0.65625q0.703125 0.296875 0.875 0.453125q0.171875 0.15625 0.203125 0.359375q-0.0625 0.640625 -0.796875 0.640625q-0.125 0 -0.28125 -0.03125q-0.625 -0.1875 -1.046875 -0.46875q-0.4375 -0.28125 -0.78125 -0.625q-0.359375 -0.34375 -0.5 -0.671875q-0.15625 -0.34375 -0.203125 -0.90625q0 -0.515625 0.546875 -1.171875q0.546875 -0.671875 1.609375 -0.984375q1.0625 -0.328125 2.828125 -0.421875q1.71875 0.09375 2.8125 0.375q1.078125 0.28125 1.515625 0.734375q0.4375 0.453125 0.59375 1.1875q0 0.140625 0 0.25q0 0.53125 -0.125 0.828125q-0.15625 0.359375 -0.625 0.859375l1.71875 0l0 1.046875zm6.28125 11.421875q0 -0.25 -0.171875 -0.40625q-0.171875 -0.171875 -0.40625 -0.171875q-0.28125 0 -0.46875 0.171875q-0.1875 0.15625 -0.1875 0.421875q0 0.265625 0.1875 0.4375q0.1875 0.15625 0.46875 0.15625q0.234375 0 0.40625 -0.15625q0.171875 -0.171875 0.171875 -0.4375l0 -0.015625zm7.65625 -5.4375q0.015625 -0.125 0.015625 -0.25q0 -0.734375 -0.421875 -1.1875q-0.484375 -0.53125 -1.25 -0.78125q-0.765625 -0.265625 -1.703125 -0.375q-0.4375 -0.046875 -0.890625 -0.046875q-0.578125 0 -1.21875 0.0625q-1.125 0.15625 -1.765625 0.46875q-0.625 0.3125 -1.015625 0.90625q-0.3125 0.484375 -0.3125 0.984375q0 0.109375 0.015625 0.21875q0.078125 0.59375 0.734375 1.078125q0.65625 0.484375 2.046875 0.625q0.625 0.0625 1.234375 0.0625q0.703125 0 1.34375 -0.09375q1.203125 -0.15625 2.015625 -0.5q0.8125 -0.34375 1.171875 -1.171875zm-4.640625 9.15625q-2.421875 -0.109375 -3.546875 -0.78125q-0.984375 -0.4375 -1.453125 -1.140625q-0.46875 -0.703125 -0.515625 -1.5625q0.109375 -0.734375 0.421875 -1.1875q0.328125 -0.453125 0.90625 -0.609375q0.3125 -0.078125 0.59375 -0.078125q0.25 0 0.484375 0.0625q0.5 0.125 0.765625 0.4375q0.265625 0.3125 0.375 0.65625q0.046875 0.203125 0.046875 0.421875q0 0.15625 -0.03125 0.328125q-0.0625 0.390625 -0.34375 0.75q-0.28125 0.359375 -0.53125 0.359375l-0.03125 0q0.25 0.34375 1.5625 0.5625q0.984375 0.15625 1.734375 0.15625q0.25 0 0.46875 0q0.90625 -0.078125 1.59375 -0.296875q0.703125 -0.234375 1.1875 -0.546875q0.5 -0.328125 0.859375 -0.984375q0.296875 -0.53125 0.296875 -1.453125q0 -0.1875 -0.015625 -0.390625l0 -1.859375q-0.578125 0.53125 -1.375 0.8125q-0.796875 0.28125 -2.0 0.390625q-0.90625 0.078125 -1.71875 0.078125q-0.28125 0 -0.546875 -0.015625q-1.046875 -0.03125 -1.796875 -0.265625q-0.75 -0.25 -1.40625 -0.65625q-0.640625 -0.40625 -1.015625 -1.03125q-0.375 -0.625 -0.421875 -1.25q-0.015625 -0.203125 -0.015625 -0.40625q0 -0.390625 0.0625 -0.75q0.109375 -0.546875 0.640625 -1.25q0.546875 -0.703125 1.46875 -1.109375q0.9375 -0.40625 1.90625 -0.578125q0.984375 -0.171875 1.78125 -0.171875q1.09375 0 2.234375 0.296875q1.15625 0.28125 1.9375 0.78125q0.78125 0.5 1.265625 1.390625q0.5 0.875 0.5 2.140625l0 4.703125q0 0.703125 -0.375 1.5q-0.4375 0.703125 -0.984375 1.140625q-0.53125 0.4375 -1.359375 0.796875q-0.828125 0.34375 -2.34375 0.5l-1.265625 0.109375zm11.324219 -11.328125q0 0.859375 0.703125 0.859375q0.6875 0 0.6875 -0.859375q0 -0.859375 -0.6875 -0.859375q-0.703125 0 -0.703125 0.859375zm2.859375 8.21875q0.8125 0.21875 1.453125 0.765625q1.03125 0.890625 2.34375 0.890625q2.390625 0 2.390625 -2.03125l0 -9.5q0 -0.375 0.75 -0.375q0.734375 0 0.734375 0.390625l0 9.546875q0 3.421875 -3.875 3.421875q-1.78125 0 -2.828125 -0.9375q-0.671875 -0.609375 -1.328125 -0.828125q-0.796875 1.71875 -2.828125 1.71875l-0.09375 0q-0.328125 -0.015625 -0.328125 -0.625q0 -0.609375 0.15625 -0.640625q0.15625 -0.046875 0.796875 -0.125q0.640625 -0.078125 0.859375 -0.734375q0.21875 -0.65625 0.328125 -1.796875l0 -5.390625q-0.34375 0.046875 -0.59375 0.046875q-2.109375 0 -2.109375 -2.015625q0 -2.015625 2.109375 -2.03125q2.109375 0.015625 2.109375 2.03125l0 7.359375q0 0.46875 -0.046875 0.859375z" fill-rule="nonzero"/><path fill="#000000" fill-opacity="0.0" d="m345.03674 234.19728l-77.29135 120.598434" fill-rule="evenodd"/><path stroke="#000000" stroke-width="1.0" stroke-linejoin="round" stroke-linecap="butt" d="m345.03674 234.19728l-74.0538 115.54689" fill-rule="evenodd"/><path fill="#000000" stroke="#000000" stroke-width="1.0" stroke-linecap="butt" d="m269.59232 348.8529l-1.058075 4.7120056l3.8393555 -2.9295044z" fill-rule="evenodd"/><path fill="#000000" fill-opacity="0.0" d="m460.77954 234.19728l110.14172 118.708664" fill-rule="evenodd"/><path stroke="#000000" stroke-width="1.0" stroke-linejoin="round" stroke-linecap="butt" d="m460.77954 234.19728l106.06079 114.31032" fill-rule="evenodd"/><path fill="#000000" stroke="#000000" stroke-width="1.0" stroke-linecap="butt" d="m565.62946 349.631l4.2974854 2.2032776l-1.8757935 -4.450165z" fill-rule="evenodd"/><path fill="#000000" fill-opacity="0.0" d="m305.2861 376.4589l76.0 -121.00789" fill-rule="evenodd"/><path stroke="#000000" stroke-width="1.0" stroke-linejoin="round" stroke-linecap="butt" d="m305.2861 376.45886l72.80884 -115.92685" fill-rule="evenodd"/><path fill="#000000" stroke="#000000" stroke-width="1.0" stroke-linecap="butt" d="m379.49368 261.4105l1.0148926 -4.7214966l-3.812378 2.964508z" fill-rule="evenodd"/><path fill="#000000" fill-opacity="0.0" d="m531.7218 362.36484l-101.22836 -106.897644" fill-rule="evenodd"/><path stroke="#000000" stroke-width="1.0" stroke-linejoin="round" stroke-linecap="butt" d="m531.7218 362.36484l-97.102844 -102.541046" fill-rule="evenodd"/><path fill="#000000" stroke="#000000" stroke-width="1.0" stroke-linecap="butt" d="m435.8183 258.68808l-4.3196716 -2.1593933l1.9210205 4.4308167z" fill-rule="evenodd"/><path fill="#000000" fill-opacity="0.0" d="m329.25723 433.3281l159.811 0" fill-rule="evenodd"/><path stroke="#000000" stroke-width="1.0" stroke-linejoin="round" stroke-linecap="butt" d="m329.25723 433.3281l153.811 0" fill-rule="evenodd"/><path fill="#000000" stroke="#000000" stroke-width="1.0" stroke-linecap="butt" d="m483.06824 434.97983l4.5381165 -1.6517334l-4.5381165 -1.6517334z" fill-rule="evenodd"/><path fill="#000000" fill-opacity="0.0" d="m492.92914 465.49344l-171.24411 1.8897705" fill-rule="evenodd"/><path stroke="#000000" stroke-width="1.0" stroke-linejoin="round" stroke-linecap="butt" d="m492.92914 465.49344l-165.24448 1.8235779" fill-rule="evenodd"/><path fill="#000000" stroke="#000000" stroke-width="1.0" stroke-linecap="butt" d="m327.66644 465.66537l-4.5195923 1.7016907l4.556061 1.6015625z" fill-rule="evenodd"/></g></svg>